<svg width="458" height="93" viewBox="0 0 458 93" fill="none" xmlns="http://www.w3.org/2000/svg">
<g id="Group 3">
<path id="Line 3" d="M93 68L444.01 67.6046" stroke="#357B04" stroke-width="2"/>
<g id="&#208;&#144;&#208;&#187;&#209;&#140;&#209;&#130;&#208;&#181;&#209;&#128;&#208;&#189;&#208;&#176;&#209;&#130;&#208;&#184;&#208;&#178;&#208;&#189;&#209;&#150; &#208;&#180;&#208;&#182;&#208;&#181;&#209;&#128;&#208;&#181;&#208;&#187;&#208;&#176; &#208;&#149;&#208;&#189;&#208;&#181;&#209;&#128;&#208;&#179;&#209;&#150;&#209;&#151;">
<path d="M97.208 91.056C96.824 90.8427 96.6107 90.608 96.568 90.352C96.5467 90.096 96.696 89.648 97.016 89.008C97.336 88.368 97.8373 87.376 98.52 86.032C99.032 85.072 99.416 84.3253 99.672 83.792C99.9493 83.2373 100.131 82.8427 100.216 82.608C100.323 82.3733 100.376 82.224 100.376 82.16C100.333 81.968 100.355 81.8187 100.44 81.712C100.525 81.584 100.664 81.4773 100.856 81.392C100.963 81.2853 101.133 81.0933 101.368 80.816C101.624 80.5387 101.859 80.208 102.072 79.824C102.264 79.376 102.488 78.9173 102.744 78.448C103 77.9787 103.341 77.392 103.768 76.688C104.195 75.9627 104.749 75.024 105.432 73.872C105.859 73.1253 106.328 72.368 106.84 71.6C107.352 70.8107 107.896 70.032 108.472 69.264C108.707 68.9653 108.92 68.7307 109.112 68.56C109.304 68.368 109.496 68.2827 109.688 68.304C109.944 68.304 110.232 68.3893 110.552 68.56C110.893 68.7307 111.203 68.9547 111.48 69.232C111.757 69.5093 111.96 69.808 112.088 70.128C112.195 70.2987 112.237 70.6613 112.216 71.216C112.195 71.7707 112.152 72.4427 112.088 73.232C112.024 74.0213 111.949 74.864 111.864 75.76C111.8 76.6347 111.704 77.6693 111.576 78.864C111.448 80.0587 111.32 81.3067 111.192 82.608C111.085 83.9093 111 85.168 110.936 86.384C110.872 87.5787 110.872 88.624 110.936 89.52C110.957 89.712 110.957 89.8933 110.936 90.064C110.915 90.2347 110.904 90.3733 110.904 90.48C110.776 90.608 110.563 90.6613 110.264 90.64C109.987 90.64 109.709 90.576 109.432 90.448C109.176 90.32 109.027 90.16 108.984 89.968C108.92 89.904 108.877 89.8187 108.856 89.712C108.856 89.584 108.867 89.328 108.888 88.944C108.909 88.56 108.931 87.952 108.952 87.12L109.112 81.936L108.696 81.968C108.504 81.968 108.141 81.9893 107.608 82.032C107.075 82.0747 106.499 82.1387 105.88 82.224C105.261 82.288 104.685 82.3627 104.152 82.448C103.64 82.512 103.288 82.576 103.096 82.64C102.904 82.64 102.669 82.768 102.392 83.024C102.136 83.28 101.891 83.6107 101.656 84.016C101.571 84.3147 101.411 84.6347 101.176 84.976C100.963 85.296 100.856 85.5093 100.856 85.616C100.707 85.7227 100.579 85.8507 100.472 86C100.387 86.1493 100.344 86.224 100.344 86.224C100.344 86.352 100.237 86.672 100.024 87.184C99.832 87.6747 99.5867 88.2293 99.288 88.848C98.9893 89.4453 98.6907 89.968 98.392 90.416L97.72 91.44L97.208 91.056ZM103.832 80.752C103.832 80.752 103.939 80.7307 104.152 80.688C104.387 80.6453 104.653 80.6027 104.952 80.56C105.272 80.496 105.56 80.464 105.816 80.464C106.712 80.2507 107.363 80.112 107.768 80.048C108.173 79.9627 108.451 79.92 108.6 79.92C108.771 79.92 108.92 79.952 109.048 80.016C109.133 80.1227 109.208 80.1867 109.272 80.208C109.357 80.2293 109.4 80.24 109.4 80.24C109.421 80.1973 109.453 79.952 109.496 79.504C109.539 79.056 109.592 78.5013 109.656 77.84C109.741 77.1787 109.816 76.496 109.88 75.792C109.965 75.0667 110.029 74.4053 110.072 73.808C110.115 73.1893 110.147 72.72 110.168 72.4C110.189 71.9947 110.211 71.632 110.232 71.312C110.253 70.9707 110.264 70.8 110.264 70.8C110.136 70.8 109.859 71.0347 109.432 71.504C109.027 71.9733 108.568 72.592 108.056 73.36C107.544 74.128 107.064 74.9493 106.616 75.824C106.403 76.2293 106.2 76.592 106.008 76.912C105.816 77.232 105.667 77.392 105.56 77.392C105.517 77.4347 105.389 77.6267 105.176 77.968C104.984 78.288 104.771 78.6613 104.536 79.088C104.301 79.4933 104.109 79.8667 103.96 80.208C103.811 80.528 103.768 80.7093 103.832 80.752ZM111.286 89.872C111.201 89.8293 111.084 89.744 110.934 89.616C110.806 89.488 110.689 89.36 110.582 89.232C110.518 89.168 110.465 89.1147 110.422 89.072C110.38 89.008 110.337 88.9653 110.294 88.944C110.294 88.7947 110.326 88.688 110.39 88.624C110.476 88.56 110.561 88.4853 110.646 88.4C110.732 88.272 110.87 88.208 111.062 88.208C111.254 88.208 111.404 88.1547 111.51 88.048C111.894 87.7707 112.289 87.4827 112.694 87.184C113.1 86.8853 113.441 86.5333 113.718 86.128C114.017 85.7013 114.316 85.2427 114.615 84.752C114.913 84.2613 115.201 83.7813 115.478 83.312C115.564 83.1627 115.702 82.896 115.894 82.512C116.086 82.128 116.268 81.7547 116.438 81.392C116.63 81.008 116.737 80.7413 116.759 80.592C116.567 80.528 116.385 80.4747 116.214 80.432C116.065 80.368 115.916 80.3147 115.766 80.272C115.574 79.9733 115.468 79.8027 115.446 79.76C115.425 79.696 115.414 79.4933 115.414 79.152C115.414 78.896 115.553 78.736 115.831 78.672C116.449 78.5227 116.993 78.4267 117.462 78.384C117.953 78.3413 118.433 78.256 118.903 78.128C119.201 78.0427 119.564 78.0107 119.991 78.032C120.417 78.0533 120.844 78.1493 121.271 78.32C121.463 78.4053 121.623 78.512 121.75 78.64C121.878 78.768 121.996 78.9173 122.102 79.088C122.38 79.472 122.519 79.8027 122.519 80.08C122.54 80.3573 122.529 80.624 122.486 80.88C122.444 81.136 122.476 81.424 122.583 81.744C122.433 82.32 122.284 82.832 122.135 83.28C121.985 83.7067 121.847 84.112 121.719 84.496C121.59 84.8587 121.473 85.2 121.366 85.52C121.26 85.84 121.175 86.16 121.111 86.48C121.025 86.8213 120.918 87.1627 120.79 87.504C120.663 87.8453 120.567 88.1973 120.503 88.56C120.46 88.8373 120.332 89.04 120.118 89.168C119.926 89.296 119.713 89.4133 119.479 89.52C119.393 89.5413 119.244 89.52 119.031 89.456C118.839 89.3707 118.657 89.2533 118.486 89.104C118.422 88.8693 118.401 88.656 118.422 88.464C118.444 88.272 118.487 88.08 118.55 87.888C118.614 87.7173 118.732 87.3333 118.903 86.736C119.073 86.1387 119.265 85.4667 119.479 84.72C119.692 83.9733 119.895 83.28 120.087 82.64C120.279 82 120.407 81.552 120.47 81.296C120.577 80.9547 120.609 80.6987 120.566 80.528C120.545 80.3573 120.513 80.1973 120.47 80.048C120.023 79.8773 119.713 79.824 119.543 79.888C119.393 79.9307 119.201 79.9733 118.967 80.016C118.86 80.1013 118.775 80.1973 118.71 80.304C118.646 80.4107 118.604 80.5173 118.583 80.624C118.348 81.2427 118.145 81.7333 117.974 82.096C117.825 82.4587 117.676 82.7893 117.526 83.088C117.377 83.3653 117.206 83.6747 117.015 84.016C116.844 84.3573 116.62 84.8267 116.342 85.424C116.172 85.808 115.959 86.16 115.702 86.48C115.468 86.8 115.255 87.1413 115.062 87.504L114.71 87.952C114.732 87.952 114.646 88.0373 114.454 88.208C114.262 88.3787 114.07 88.5493 113.878 88.72C113.708 88.8907 113.622 88.976 113.622 88.976L112.63 89.744C112.524 89.8293 112.342 89.872 112.086 89.872C111.83 89.872 111.564 89.872 111.286 89.872ZM124.295 89.392C124.039 89.3067 123.762 89.2533 123.463 89.232C123.164 89.1893 122.908 89.0613 122.695 88.848C122.418 88.5707 122.204 88.2507 122.055 87.888C121.927 87.504 121.906 87.12 121.991 86.736C122.055 86.5013 122.087 86.2773 122.087 86.064C122.087 85.8293 122.14 85.6053 122.247 85.392C122.268 85.1573 122.322 84.944 122.407 84.752C122.492 84.5387 122.578 84.3253 122.663 84.112C122.812 83.7493 122.94 83.3867 123.047 83.024C123.175 82.6613 123.324 82.3093 123.495 81.968C123.815 81.3067 124.156 80.6667 124.519 80.048C124.903 79.4293 125.244 78.7893 125.543 78.128C125.628 77.9573 125.724 77.8507 125.831 77.808C125.959 77.744 126.087 77.712 126.215 77.712C126.386 77.712 126.556 77.744 126.727 77.808C126.898 77.872 127.047 77.9253 127.175 77.968C127.239 78.16 127.335 78.32 127.463 78.448C127.591 78.576 127.634 78.7573 127.591 78.992C127.292 79.4187 127.004 79.856 126.727 80.304C126.471 80.7307 126.215 81.168 125.959 81.616C125.724 82.0427 125.49 82.4907 125.255 82.96C125.106 83.28 124.988 83.6213 124.903 83.984C124.818 84.3467 124.7 84.688 124.551 85.008C124.402 85.3493 124.295 85.712 124.231 86.096C124.167 86.4587 124.082 86.8213 123.975 87.184C123.954 87.2907 123.954 87.3973 123.975 87.504C124.018 87.5893 124.092 87.6533 124.199 87.696C124.498 87.5893 124.796 87.4933 125.095 87.408C125.394 87.3227 125.66 87.184 125.895 86.992C126.322 86.6507 126.663 86.352 126.919 86.096C127.175 85.8187 127.378 85.5093 127.527 85.168C127.676 84.8053 127.783 84.336 127.847 83.76C127.868 83.632 127.858 83.5147 127.815 83.408C127.772 83.28 127.708 83.1733 127.623 83.088C127.431 83.0027 127.25 82.9067 127.079 82.8C126.93 82.672 126.812 82.5333 126.727 82.384C126.663 82.2133 126.663 82.0213 126.727 81.808C126.812 81.5093 126.983 81.296 127.239 81.168C127.516 81.04 127.772 80.9867 128.007 81.008C128.05 81.0293 128.082 81.0507 128.103 81.072C128.146 81.0933 128.178 81.1253 128.199 81.168C128.37 81.2533 128.54 81.3707 128.711 81.52C128.882 81.648 129.031 81.7653 129.159 81.872C129.244 82.1067 129.362 82.3627 129.511 82.64C129.66 82.9173 129.735 83.344 129.735 83.92C129.735 85.1147 129.415 86.0853 128.775 86.832C128.156 87.5787 127.335 88.2293 126.311 88.784C126.162 88.8693 126.002 88.9333 125.831 88.976C125.682 88.9973 125.543 89.0613 125.415 89.168C125.394 89.1467 125.298 89.1573 125.127 89.2C124.956 89.2213 124.786 89.2533 124.615 89.296C124.444 89.3387 124.338 89.3707 124.295 89.392ZM130.873 88.432C130.638 88.2827 130.425 88.0907 130.233 87.856C130.041 87.6 129.945 87.28 129.945 86.896C129.945 86.6827 129.987 86.32 130.073 85.808C130.158 85.296 130.275 84.72 130.425 84.08C130.574 83.44 130.723 82.8427 130.873 82.288C131.086 81.904 131.267 81.52 131.417 81.136C131.566 80.752 131.641 80.5173 131.641 80.432C131.683 80.176 131.737 79.8773 131.801 79.536C131.886 79.1947 131.971 78.8853 132.057 78.608C132.142 78.3307 132.206 78.1707 132.249 78.128C132.355 78.0213 132.483 77.9573 132.633 77.936C132.782 77.8933 132.931 77.9147 133.081 78C133.251 78.064 133.379 78.2027 133.465 78.416C133.699 78.672 133.817 78.9813 133.817 79.344C133.817 79.6853 133.699 80.1973 133.465 80.88C133.273 81.3067 133.081 81.808 132.889 82.384C132.697 82.96 132.526 83.4933 132.377 83.984C132.249 84.4533 132.174 84.7733 132.153 84.944L131.513 85.136C131.875 84.7947 132.217 84.4427 132.537 84.08C132.857 83.696 133.091 83.3973 133.241 83.184C133.603 82.6933 133.913 82.288 134.169 81.968C134.446 81.6267 134.798 81.2213 135.225 80.752C135.651 80.2613 136.067 79.9627 136.473 79.856C136.899 79.728 137.23 79.664 137.465 79.664C137.934 79.7493 138.307 79.9947 138.585 80.4C138.883 80.784 139.075 81.36 139.161 82.128C139.161 82.4267 139.129 82.7787 139.065 83.184C139.022 83.5893 139.001 83.792 139.001 83.792C139.001 83.792 139.171 83.568 139.513 83.12C139.875 82.672 140.355 82.1813 140.953 81.648C141.358 81.3493 141.753 81.1787 142.137 81.136C142.521 81.072 142.862 81.2 143.161 81.52C143.715 81.8187 144.078 82.2773 144.249 82.896C144.419 83.4933 144.462 84.2613 144.377 85.2C144.313 85.7547 144.302 86.1707 144.345 86.448C144.387 86.704 144.451 86.96 144.537 87.216C144.707 87.3013 144.739 87.4827 144.633 87.76C144.526 88.016 144.398 88.144 144.249 88.144C144.035 88.144 143.79 88.1013 143.513 88.016C143.257 87.9307 143.022 87.792 142.809 87.6C142.617 87.3867 142.521 87.0987 142.521 86.736V84.752C142.521 84.2827 142.499 83.8987 142.457 83.6C142.435 83.3013 142.382 83.12 142.297 83.056C142.062 82.928 141.721 83.0667 141.273 83.472C140.825 83.8773 140.345 84.4213 139.833 85.104C139.321 85.7867 138.841 86.4907 138.393 87.216C137.987 87.8773 137.731 88.2613 137.625 88.368C137.539 88.4533 137.379 88.4213 137.145 88.272C136.675 88.1227 136.377 87.92 136.249 87.664C136.142 87.3867 136.131 87.0773 136.217 86.736C136.323 86.3733 136.451 85.8827 136.601 85.264C136.771 84.6453 136.931 84.048 137.081 83.472C137.23 82.8747 137.326 82.448 137.369 82.192C137.283 82.0213 137.134 81.968 136.921 82.032C136.729 82.0747 136.526 82.1707 136.313 82.32C136.057 82.4907 135.747 82.8107 135.385 83.28C135.022 83.7493 134.649 84.2933 134.265 84.912C134.009 85.3173 133.742 85.7227 133.465 86.128C133.187 86.512 132.931 86.8533 132.697 87.152C132.462 87.4507 132.259 87.6747 132.089 87.824C131.79 88.2933 131.587 88.5493 131.481 88.592C131.374 88.6347 131.171 88.5813 130.873 88.432ZM151.307 88.88C150.859 89.264 150.336 89.488 149.739 89.552C149.163 89.616 148.598 89.5307 148.043 89.296C147.488 89.04 147.03 88.656 146.667 88.144C146.304 87.6747 146.07 87.1413 145.963 86.544C145.856 85.9253 145.846 85.1253 145.931 84.144C145.995 83.312 146.262 82.48 146.731 81.648C147.2 80.7947 147.766 80.0373 148.427 79.376C149.11 78.7147 149.782 78.256 150.443 78C150.763 77.7867 151.03 77.6907 151.243 77.712C151.478 77.712 151.83 77.7333 152.299 77.776C152.79 77.84 153.152 77.936 153.387 78.064C153.643 78.192 153.846 78.3627 153.995 78.576C154.315 78.896 154.528 79.216 154.635 79.536C154.742 79.8347 154.795 80.1333 154.795 80.432C154.71 80.9013 154.39 81.4773 153.835 82.16C153.302 82.8213 152.598 83.3653 151.723 83.792C151.254 83.9413 150.742 84.0053 150.187 83.984C149.632 83.9627 149.174 83.824 148.811 83.568C148.406 83.3973 148.139 83.4293 148.011 83.664C147.883 83.8773 147.766 84.4107 147.659 85.264C147.574 86.0747 147.638 86.672 147.851 87.056C148.064 87.4187 148.352 87.632 148.715 87.696C149.142 87.7813 149.472 87.8453 149.707 87.888C149.963 87.9093 150.272 87.8133 150.635 87.6C150.976 87.3867 151.19 87.2693 151.275 87.248C151.36 87.2053 151.424 87.1627 151.467 87.12C151.531 87.056 151.67 86.9173 151.883 86.704C152.032 86.5547 152.15 86.448 152.235 86.384C152.32 86.2987 152.416 86.256 152.523 86.256C152.63 86.256 152.726 86.3093 152.811 86.416C152.896 86.5013 152.982 86.5653 153.067 86.608C153.28 86.608 153.323 86.736 153.195 86.992C153.088 87.248 152.864 87.5573 152.523 87.92C152.182 88.2613 151.776 88.5813 151.307 88.88ZM151.275 82.096C151.51 81.9893 151.755 81.84 152.011 81.648C152.267 81.4347 152.48 81.2107 152.651 80.976C152.843 80.72 152.939 80.5067 152.939 80.336C152.939 80.0373 152.8 79.792 152.523 79.6C152.246 79.3867 151.83 79.3547 151.275 79.504C151.04 79.568 150.774 79.728 150.475 79.984C150.176 80.2187 149.888 80.4853 149.611 80.784C149.355 81.0827 149.142 81.3493 148.971 81.584C148.822 81.8187 148.768 81.9573 148.811 82C148.875 82.1067 149.056 82.192 149.355 82.256C149.654 82.2987 149.984 82.3093 150.347 82.288C150.731 82.2667 151.04 82.2027 151.275 82.096ZM153.233 97.168C153.148 97.168 153.041 97.168 152.913 97.168C152.785 97.1893 152.668 97.104 152.561 96.912C152.476 96.8053 152.423 96.6453 152.401 96.432C152.401 96.2187 152.455 95.8347 152.561 95.28C152.668 94.9173 152.753 94.5547 152.817 94.192C152.881 93.8507 152.913 93.5947 152.913 93.424C152.913 93.3387 152.935 93.168 152.977 92.912C153.041 92.6773 153.073 92.5067 153.073 92.4C153.18 92.2293 153.265 91.9947 153.329 91.696C153.393 91.3973 153.425 91.1307 153.425 90.896C153.425 90.64 153.553 90.4053 153.809 90.192C153.809 90.0213 153.841 89.808 153.905 89.552C153.991 89.296 154.033 89.1253 154.033 89.04C154.097 88.7413 154.236 88.2187 154.449 87.472C154.684 86.704 154.961 85.84 155.281 84.88C155.623 83.92 155.953 82.9813 156.273 82.064C156.593 81.1467 156.881 80.368 157.137 79.728C157.393 79.1307 157.564 78.6187 157.649 78.192C157.756 77.744 157.809 77.4133 157.809 77.2C157.809 77.1147 157.831 77.0507 157.873 77.008C157.916 76.944 158.012 76.8267 158.161 76.656C158.375 76.4427 158.556 76.3787 158.705 76.464C158.876 76.5493 159.079 76.6773 159.313 76.848C159.484 77.1253 159.601 77.36 159.665 77.552C159.751 77.744 159.751 78.0747 159.665 78.544C159.665 78.864 159.612 79.1413 159.505 79.376C159.399 79.6107 159.303 79.792 159.217 79.92C159.132 80.0267 159.111 80.0693 159.153 80.048C160.028 79.6427 160.796 79.4293 161.457 79.408C162.14 79.3653 162.705 79.4827 163.153 79.76C163.623 80.016 163.975 80.3787 164.209 80.848C164.444 81.3173 164.561 81.8613 164.561 82.48C164.561 82.736 164.508 83.0453 164.401 83.408C164.295 83.7493 164.156 84.0693 163.985 84.368C163.836 84.6453 163.697 84.848 163.569 84.976C163.484 84.976 163.399 85.0507 163.313 85.2C163.228 85.328 163.143 85.4773 163.057 85.648C162.887 85.8613 162.609 86.1067 162.225 86.384C161.863 86.64 161.5 86.8533 161.137 87.024C160.775 87.1733 160.508 87.216 160.337 87.152C160.337 87.152 160.305 87.1627 160.241 87.184C160.199 87.184 160.177 87.2373 160.177 87.344C160.177 87.3867 160.007 87.4827 159.665 87.632C159.324 87.76 158.929 87.888 158.481 88.016C158.033 88.1227 157.639 88.176 157.297 88.176C156.849 88.176 156.529 88.0907 156.337 87.92C156.295 87.9627 156.241 88.0267 156.177 88.112C156.135 88.1973 156.113 88.272 156.113 88.336C156.113 88.464 156.06 88.7093 155.953 89.072C155.868 89.4133 155.761 89.744 155.633 90.064C155.505 90.384 155.388 90.544 155.281 90.544C155.281 90.544 155.26 90.576 155.217 90.64C155.175 90.704 155.196 90.7893 155.281 90.896C155.281 90.896 155.271 91.0133 155.249 91.248C155.249 91.504 155.196 91.7173 155.089 91.888C155.089 92.0587 155.057 92.3147 154.993 92.656C154.929 92.9973 154.855 93.2533 154.769 93.424C154.769 93.68 154.727 93.9253 154.641 94.16C154.577 94.416 154.503 94.544 154.417 94.544C154.332 94.5653 154.279 94.6933 154.257 94.928C154.236 95.184 154.225 95.3653 154.225 95.472C154.204 96.0053 154.097 96.4213 153.905 96.72C153.713 97.0187 153.489 97.168 153.233 97.168ZM157.105 86.48C157.276 86.48 157.628 86.4053 158.161 86.256C158.695 86.1067 159.239 85.9253 159.793 85.712C160.369 85.4773 160.796 85.2427 161.073 85.008C161.628 84.5173 162.055 83.9627 162.353 83.344C162.673 82.704 162.652 82.096 162.289 81.52C162.119 81.2213 161.809 81.104 161.361 81.168C160.913 81.2107 160.423 81.3813 159.889 81.68C159.356 81.9787 158.855 82.352 158.385 82.8C158.129 83.0773 157.895 83.4187 157.681 83.824C157.468 84.2293 157.287 84.6347 157.137 85.04C157.009 85.4453 156.935 85.7867 156.913 86.064C156.892 86.3413 156.956 86.48 157.105 86.48ZM172.783 89.648C172.655 89.6053 172.527 89.5733 172.399 89.552C172.271 89.5093 172.143 89.4667 172.015 89.424C171.908 89.3813 171.78 89.3493 171.631 89.328C171.418 89.0293 171.332 88.6667 171.375 88.24C171.418 87.792 171.514 87.3333 171.663 86.864C171.834 86.3947 171.994 85.936 172.143 85.488C172.314 85.04 172.41 84.656 172.431 84.336C172.41 84.2507 172.378 84.2293 172.335 84.272C172.292 84.2933 172.271 84.3253 172.271 84.368C172.122 84.5387 171.908 84.656 171.631 84.72C171.354 84.784 171.098 84.8373 170.863 84.88C170.458 84.944 170.052 85.0187 169.647 85.104C169.242 85.1893 168.847 85.2853 168.463 85.392C168.399 85.3493 168.324 85.296 168.239 85.232C168.175 85.168 168.111 85.1147 168.047 85.072C167.898 85.072 167.77 85.2107 167.663 85.488C167.556 85.7653 167.46 86.1067 167.375 86.512C167.29 86.896 167.204 87.2693 167.119 87.632C167.055 87.9733 166.991 88.2187 166.927 88.368C166.586 88.4107 166.34 88.4213 166.191 88.4C166.063 88.3787 165.818 88.3147 165.455 88.208C165.284 87.9733 165.188 87.7493 165.167 87.536C165.167 87.3227 165.199 87.088 165.263 86.832C165.37 86.3413 165.455 85.9467 165.519 85.648C165.604 85.3493 165.743 84.9653 165.935 84.496C166.042 84.2613 166.138 84.0373 166.223 83.824C166.33 83.5893 166.383 83.3333 166.383 83.056C166.554 82.8427 166.671 82.608 166.735 82.352C166.799 82.096 166.874 81.84 166.959 81.584C167.3 80.7093 167.567 80.0373 167.759 79.568C167.972 79.0773 168.122 78.6933 168.207 78.416C168.292 78.1387 168.346 77.8827 168.367 77.648C168.388 77.3493 168.57 77.2 168.911 77.2C169.124 77.2 169.348 77.2853 169.583 77.456C169.818 77.6053 169.999 77.7973 170.127 78.032C170.255 78.2667 170.266 78.512 170.159 78.768C170.095 78.9387 169.988 79.216 169.839 79.6C169.711 79.9627 169.562 80.368 169.391 80.816C169.242 81.2427 169.092 81.648 168.943 82.032C168.815 82.3947 168.708 82.6613 168.623 82.832C168.602 82.9173 168.559 82.992 168.495 83.056C168.431 83.0987 168.399 83.1733 168.399 83.28C168.548 83.3867 168.794 83.4293 169.135 83.408C169.498 83.3653 169.754 83.3013 169.903 83.216C170.223 83.216 170.532 83.216 170.831 83.216C171.151 83.216 171.471 83.216 171.791 83.216C172.111 83.408 172.356 83.696 172.527 84.08C172.676 83.6747 172.879 83.1413 173.135 82.48C173.391 81.7973 173.636 81.1253 173.871 80.464C174.106 79.8027 174.244 79.3013 174.287 78.96C174.33 78.768 174.415 78.5973 174.543 78.448C174.671 78.2987 174.81 78.1813 174.959 78.096C175.258 78.2453 175.546 78.3733 175.823 78.48C176.122 78.5653 176.314 78.8107 176.399 79.216C176.378 79.408 176.335 79.6 176.271 79.792C176.207 79.9627 176.143 80.1333 176.079 80.304C175.866 80.9227 175.599 81.6053 175.279 82.352C174.959 83.0773 174.66 83.824 174.383 84.592C174.127 85.3387 173.946 86.0427 173.839 86.704C173.839 86.768 173.786 86.9813 173.679 87.344C173.594 87.7067 173.498 88.0587 173.391 88.4C173.306 88.7413 173.252 88.9227 173.231 88.944C173.231 89.0933 173.188 89.232 173.103 89.36C173.018 89.4667 172.911 89.5627 172.783 89.648ZM178.939 89.072C178.768 89.1147 178.544 89.136 178.267 89.136C177.989 89.1147 177.744 89.0827 177.531 89.04C177.339 88.976 177.243 88.912 177.243 88.848C177.243 88.7413 177.189 88.688 177.083 88.688C177.083 88.688 177.029 88.6453 176.923 88.56C176.837 88.4747 176.699 88.3893 176.507 88.304C176.315 88.0053 176.219 87.6853 176.219 87.344C176.219 86.9813 176.315 86.416 176.507 85.648C176.571 85.1147 176.773 84.496 177.115 83.792C177.477 83.0667 177.915 82.3307 178.427 81.584C178.939 80.8373 179.472 80.1653 180.027 79.568C180.603 78.9707 181.125 78.5333 181.595 78.256C181.893 77.9573 182.256 77.7973 182.683 77.776C183.109 77.7547 183.515 77.8507 183.899 78.064C184.112 78.1707 184.325 78.3413 184.539 78.576C184.752 78.8107 184.955 79.0667 185.147 79.344C185.339 79.6213 185.499 79.8987 185.627 80.176C185.691 80.4107 185.723 80.624 185.723 80.816C185.744 80.9867 185.744 81.2 185.723 81.456C185.723 81.712 185.691 82.096 185.627 82.608C185.52 82.992 185.424 83.4613 185.339 84.016C185.275 84.5707 185.243 85.0507 185.243 85.456C185.2 85.8613 185.243 86.1493 185.371 86.32C185.52 86.4907 185.733 86.5013 186.011 86.352C186.267 86.224 186.512 86.1707 186.747 86.192C186.981 86.192 187.163 86.256 187.291 86.384C187.44 86.512 187.515 86.704 187.515 86.96C187.515 87.216 187.387 87.4827 187.131 87.76C186.896 88.016 186.597 88.24 186.235 88.432C185.893 88.6027 185.563 88.688 185.243 88.688C185.008 88.688 184.784 88.5493 184.571 88.272C184.357 87.9733 184.165 87.6213 183.995 87.216C183.845 86.7893 183.707 86.384 183.579 86L183.387 85.264L182.011 86.576C181.733 86.8747 181.456 87.152 181.179 87.408C180.923 87.6427 180.763 87.8133 180.699 87.92C180.592 88.112 180.389 88.304 180.091 88.496C179.813 88.688 179.429 88.88 178.939 89.072ZM179.035 87.184C179.397 86.9707 179.813 86.6613 180.283 86.256C180.752 85.8293 181.211 85.3707 181.659 84.88C182.107 84.368 182.48 83.8987 182.779 83.472C183.141 82.9813 183.419 82.5227 183.611 82.096C183.803 81.6693 183.941 81.264 184.027 80.88C183.941 80.6453 183.803 80.4 183.611 80.144C183.419 79.8667 183.248 79.7173 183.099 79.696C182.629 79.696 182.128 79.9947 181.595 80.592C181.083 81.168 180.581 81.7973 180.091 82.48C180.005 82.5867 179.888 82.7573 179.739 82.992C179.589 83.2267 179.44 83.4507 179.291 83.664C179.163 83.856 179.077 83.984 179.035 84.048C178.971 84.1333 178.843 84.3787 178.651 84.784C178.48 85.168 178.309 85.5627 178.139 85.968C177.968 86.352 177.883 86.608 177.883 86.736C177.883 86.864 177.893 87.0027 177.915 87.152C177.957 87.3013 178.064 87.3973 178.235 87.44C178.405 87.4827 178.672 87.3973 179.035 87.184ZM188.966 88.432C188.732 88.2827 188.518 88.0907 188.326 87.856C188.134 87.6 188.038 87.28 188.038 86.896C188.038 86.6827 188.081 86.32 188.166 85.808C188.252 85.296 188.369 84.72 188.518 84.08C188.668 83.44 188.817 82.8427 188.966 82.288C189.18 81.904 189.361 81.52 189.51 81.136C189.66 80.752 189.734 80.5173 189.734 80.432C189.777 80.176 189.83 79.8773 189.894 79.536C189.98 79.1947 190.065 78.8853 190.15 78.608C190.236 78.3307 190.3 78.1707 190.342 78.128C190.449 78.0213 190.577 77.9573 190.726 77.936C190.876 77.8933 191.025 77.9147 191.174 78C191.345 78.064 191.473 78.2027 191.558 78.416C191.793 78.672 191.91 78.9813 191.91 79.344C191.91 79.6853 191.793 80.1973 191.558 80.88C191.366 81.3067 191.174 81.808 190.982 82.384C190.79 82.96 190.62 83.4933 190.47 83.984C190.342 84.4533 190.268 84.7733 190.246 84.944L189.606 85.136C189.969 84.7947 190.31 84.4427 190.63 84.08C190.95 83.696 191.185 83.3973 191.334 83.184C191.697 82.6933 192.006 82.288 192.262 81.968C192.54 81.6267 192.892 81.2213 193.318 80.752C193.745 80.2613 194.161 79.9627 194.566 79.856C194.993 79.728 195.324 79.664 195.558 79.664C196.028 79.7493 196.401 79.9947 196.678 80.4C196.977 80.784 197.169 81.36 197.254 82.128C197.254 82.4267 197.222 82.7787 197.158 83.184C197.116 83.5893 197.094 83.792 197.094 83.792C197.094 83.792 197.265 83.568 197.606 83.12C197.969 82.672 198.449 82.1813 199.046 81.648C199.452 81.3493 199.846 81.1787 200.23 81.136C200.614 81.072 200.956 81.2 201.254 81.52C201.809 81.8187 202.172 82.2773 202.342 82.896C202.513 83.4933 202.556 84.2613 202.47 85.2C202.406 85.7547 202.396 86.1707 202.438 86.448C202.481 86.704 202.545 86.96 202.63 87.216C202.801 87.3013 202.833 87.4827 202.726 87.76C202.62 88.016 202.492 88.144 202.342 88.144C202.129 88.144 201.884 88.1013 201.606 88.016C201.35 87.9307 201.116 87.792 200.902 87.6C200.71 87.3867 200.614 87.0987 200.614 86.736V84.752C200.614 84.2827 200.593 83.8987 200.55 83.6C200.529 83.3013 200.476 83.12 200.39 83.056C200.156 82.928 199.814 83.0667 199.366 83.472C198.918 83.8773 198.438 84.4213 197.926 85.104C197.414 85.7867 196.934 86.4907 196.486 87.216C196.081 87.8773 195.825 88.2613 195.718 88.368C195.633 88.4533 195.473 88.4213 195.238 88.272C194.769 88.1227 194.47 87.92 194.342 87.664C194.236 87.3867 194.225 87.0773 194.31 86.736C194.417 86.3733 194.545 85.8827 194.694 85.264C194.865 84.6453 195.025 84.048 195.174 83.472C195.324 82.8747 195.42 82.448 195.462 82.192C195.377 82.0213 195.228 81.968 195.014 82.032C194.822 82.0747 194.62 82.1707 194.406 82.32C194.15 82.4907 193.841 82.8107 193.478 83.28C193.116 83.7493 192.742 84.2933 192.358 84.912C192.102 85.3173 191.836 85.7227 191.558 86.128C191.281 86.512 191.025 86.8533 190.79 87.152C190.556 87.4507 190.353 87.6747 190.182 87.824C189.884 88.2933 189.681 88.5493 189.574 88.592C189.468 88.6347 189.265 88.5813 188.966 88.432ZM211.897 90.032C211.683 90.1387 211.438 90.0747 211.161 89.84C210.883 89.6053 210.691 89.4133 210.585 89.264C210.393 89.008 210.254 88.656 210.169 88.208C210.083 87.76 210.041 87.3867 210.041 87.088C210.041 86.5333 209.998 86.2133 209.913 86.128C209.849 86.0427 209.71 86.1173 209.497 86.352C209.305 86.5653 209.017 86.864 208.633 87.248C208.462 87.4187 208.185 87.6427 207.801 87.92C207.417 88.1973 207.022 88.432 206.617 88.624C206.211 88.816 205.87 88.912 205.593 88.912C205.401 88.8907 205.209 88.784 205.017 88.592C204.825 88.4 204.654 88.1867 204.505 87.952C204.377 87.696 204.281 87.4827 204.217 87.312C204.11 86.992 204.099 86.4693 204.185 85.744C204.291 84.9973 204.462 84.176 204.697 83.28C204.953 82.3627 205.241 81.488 205.561 80.656C205.902 79.8027 206.243 79.1093 206.585 78.576C206.947 78.0213 207.299 77.744 207.641 77.744C207.875 77.744 208.057 77.8827 208.185 78.16C208.334 78.416 208.451 78.6293 208.537 78.8C208.643 79.0133 208.675 79.152 208.633 79.216C208.611 79.28 208.526 79.3973 208.377 79.568C208.206 79.7813 208.003 80.144 207.769 80.656C207.534 81.1467 207.289 81.6907 207.033 82.288C206.798 82.864 206.585 83.4187 206.393 83.952C206.201 84.4853 206.062 84.8907 205.977 85.168C205.934 85.3387 205.87 85.5733 205.785 85.872C205.721 86.1707 205.699 86.4053 205.721 86.576C205.721 86.5973 205.731 86.6507 205.753 86.736C205.774 86.8 205.859 86.832 206.009 86.832C206.478 86.832 206.947 86.64 207.417 86.256C207.907 85.8507 208.387 85.328 208.857 84.688C209.347 84.048 209.806 83.376 210.233 82.672C210.659 81.968 211.054 81.296 211.417 80.656C211.801 80.016 212.131 79.4933 212.409 79.088C212.686 78.6613 212.91 78.4373 213.081 78.416C213.23 78.3947 213.401 78.416 213.593 78.48C213.806 78.5227 213.987 78.5973 214.137 78.704C214.286 78.8107 214.35 78.96 214.329 79.152C214.073 79.9413 213.763 80.7307 213.401 81.52C213.038 82.288 212.697 83.0667 212.377 83.856C212.078 84.6453 211.865 85.456 211.737 86.288C211.651 86.8 211.683 87.3013 211.833 87.792C212.003 88.2827 212.27 88.72 212.633 89.104C212.846 89.3173 212.825 89.52 212.569 89.712C212.313 89.904 212.089 90.0107 211.897 90.032ZM216.328 89.904C216.008 89.904 215.602 89.8827 215.112 89.84C214.642 89.7973 214.237 89.4987 213.896 88.944C213.682 88.5813 213.522 88.1653 213.416 87.696C213.33 87.2267 213.33 86.896 213.416 86.704C213.714 85.0613 213.949 83.9307 214.12 83.312C214.29 82.6933 214.386 82.3413 214.408 82.256C214.45 82.1707 214.536 81.968 214.664 81.648C214.813 81.3067 214.898 81.0933 214.92 81.008C215.026 80.6667 215.058 80.2827 215.016 79.856C214.994 79.6853 215.005 79.536 215.048 79.408C215.112 79.2587 215.208 79.1307 215.336 79.024C215.698 78.7467 215.986 78.384 216.2 77.936C216.264 77.7867 216.381 77.5307 216.552 77.168C216.744 76.784 216.936 76.4107 217.128 76.048C217.341 75.664 217.501 75.3973 217.608 75.248C217.949 74.8213 218.258 74.3733 218.536 73.904C218.834 73.4133 219.197 72.9867 219.624 72.624C219.901 72.1547 220.253 71.728 220.68 71.344C221.106 70.9387 221.533 70.5653 221.96 70.224C222.386 69.8827 222.728 69.584 222.984 69.328C223.09 69.2213 223.378 69.1253 223.848 69.04C224.338 68.9333 224.733 68.8373 225.032 68.752C225.16 68.688 225.405 68.7413 225.768 68.912C226.13 69.0613 226.386 69.232 226.536 69.424C226.813 69.8933 226.973 70.2773 227.016 70.576C227.08 70.8747 227.037 71.2267 226.888 71.632C226.76 72.016 226.504 72.6133 226.12 73.424C225.693 74.2773 225.085 75.088 224.296 75.856C223.528 76.6027 222.738 77.2533 221.928 77.808C221.522 78.1707 221.096 78.5013 220.648 78.8C220.221 79.0987 219.784 79.3653 219.336 79.6C219.058 79.7493 218.77 79.888 218.472 80.016C218.194 80.144 217.906 80.2613 217.608 80.368C217.458 80.4107 217.32 80.496 217.192 80.624C217.064 80.7307 216.957 80.8907 216.872 81.104C216.744 81.4027 216.669 81.6587 216.648 81.872C216.648 82.064 216.584 82.224 216.456 82.352C216.392 82.416 216.296 82.672 216.168 83.12C216.061 83.5467 215.933 84.0587 215.784 84.656C215.656 85.232 215.549 85.776 215.464 86.288C215.378 86.7787 215.346 87.1093 215.368 87.28C215.389 87.3867 215.41 87.504 215.432 87.632C215.474 87.7387 215.57 87.824 215.72 87.888C216.04 87.824 216.296 87.7173 216.488 87.568C216.68 87.3973 216.893 87.1733 217.128 86.896C217.384 86.576 217.618 86.2347 217.832 85.872C218.066 85.5093 218.258 85.136 218.408 84.752C218.493 84.5173 218.557 84.272 218.6 84.016C218.642 83.7387 218.717 83.4933 218.824 83.28C218.824 82.7893 218.813 82.4267 218.792 82.192C218.792 81.936 218.77 81.7333 218.728 81.584C218.706 81.4133 218.653 81.2213 218.568 81.008C218.738 80.9013 218.834 80.816 218.856 80.752C218.898 80.688 218.994 80.6773 219.144 80.72C219.421 80.784 219.677 80.8907 219.912 81.04C220.168 81.1893 220.413 81.3813 220.648 81.616C220.733 81.7013 220.786 81.7867 220.808 81.872C220.829 81.9573 220.818 82.0533 220.776 82.16C220.754 82.416 220.722 82.672 220.68 82.928C220.658 83.1627 220.648 83.3973 220.648 83.632C220.498 83.9093 220.402 84.208 220.36 84.528C220.317 84.8267 220.242 85.1253 220.136 85.424C220.008 85.7013 219.88 85.9787 219.752 86.256C219.624 86.5333 219.474 86.7893 219.304 87.024C219.048 87.4933 218.749 87.9093 218.408 88.272C218.088 88.6347 217.746 88.9653 217.384 89.264L216.328 89.904ZM217.8 78.096C218.056 78.1387 218.237 78.1493 218.344 78.128C218.472 78.0853 218.6 77.9787 218.728 77.808C219.73 77.1467 220.648 76.496 221.48 75.856C222.312 75.1947 223.005 74.5653 223.56 73.968C224.136 73.3493 224.509 72.8053 224.68 72.336C224.786 72.1013 224.904 71.8773 225.032 71.664C225.181 71.4507 225.277 71.2053 225.32 70.928L225.192 70.032C224.594 70.3093 224.114 70.5653 223.752 70.8C223.41 71.0347 222.962 71.4293 222.408 71.984C222.194 72.1973 221.874 72.56 221.448 73.072C221.042 73.5627 220.594 74.1173 220.104 74.736C219.613 75.3547 219.154 75.9627 218.728 76.56C218.322 77.1573 218.013 77.6693 217.8 78.096ZM229.408 89.648C229.28 89.6053 229.152 89.5733 229.024 89.552C228.896 89.5093 228.768 89.4667 228.64 89.424C228.533 89.3813 228.405 89.3493 228.256 89.328C228.043 89.0293 227.957 88.6667 228 88.24C228.043 87.792 228.139 87.3333 228.288 86.864C228.459 86.3947 228.619 85.936 228.768 85.488C228.939 85.04 229.035 84.656 229.056 84.336C229.035 84.2507 229.003 84.2293 228.96 84.272C228.917 84.2933 228.896 84.3253 228.896 84.368C228.747 84.5387 228.533 84.656 228.256 84.72C227.979 84.784 227.723 84.8373 227.488 84.88C227.083 84.944 226.677 85.0187 226.272 85.104C225.867 85.1893 225.472 85.2853 225.088 85.392C225.024 85.3493 224.949 85.296 224.864 85.232C224.8 85.168 224.736 85.1147 224.672 85.072C224.523 85.072 224.395 85.2107 224.288 85.488C224.181 85.7653 224.085 86.1067 224 86.512C223.915 86.896 223.829 87.2693 223.744 87.632C223.68 87.9733 223.616 88.2187 223.552 88.368C223.211 88.4107 222.965 88.4213 222.816 88.4C222.688 88.3787 222.443 88.3147 222.08 88.208C221.909 87.9733 221.813 87.7493 221.792 87.536C221.792 87.3227 221.824 87.088 221.888 86.832C221.995 86.3413 222.08 85.9467 222.144 85.648C222.229 85.3493 222.368 84.9653 222.56 84.496C222.667 84.2613 222.763 84.0373 222.848 83.824C222.955 83.5893 223.008 83.3333 223.008 83.056C223.179 82.8427 223.296 82.608 223.36 82.352C223.424 82.096 223.499 81.84 223.584 81.584C223.925 80.7093 224.192 80.0373 224.384 79.568C224.597 79.0773 224.747 78.6933 224.832 78.416C224.917 78.1387 224.971 77.8827 224.992 77.648C225.013 77.3493 225.195 77.2 225.536 77.2C225.749 77.2 225.973 77.2853 226.208 77.456C226.443 77.6053 226.624 77.7973 226.752 78.032C226.88 78.2667 226.891 78.512 226.784 78.768C226.72 78.9387 226.613 79.216 226.464 79.6C226.336 79.9627 226.187 80.368 226.016 80.816C225.867 81.2427 225.717 81.648 225.568 82.032C225.44 82.3947 225.333 82.6613 225.248 82.832C225.227 82.9173 225.184 82.992 225.12 83.056C225.056 83.0987 225.024 83.1733 225.024 83.28C225.173 83.3867 225.419 83.4293 225.76 83.408C226.123 83.3653 226.379 83.3013 226.528 83.216C226.848 83.216 227.157 83.216 227.456 83.216C227.776 83.216 228.096 83.216 228.416 83.216C228.736 83.408 228.981 83.696 229.152 84.08C229.301 83.6747 229.504 83.1413 229.76 82.48C230.016 81.7973 230.261 81.1253 230.496 80.464C230.731 79.8027 230.869 79.3013 230.912 78.96C230.955 78.768 231.04 78.5973 231.168 78.448C231.296 78.2987 231.435 78.1813 231.584 78.096C231.883 78.2453 232.171 78.3733 232.448 78.48C232.747 78.5653 232.939 78.8107 233.024 79.216C233.003 79.408 232.96 79.6 232.896 79.792C232.832 79.9627 232.768 80.1333 232.704 80.304C232.491 80.9227 232.224 81.6053 231.904 82.352C231.584 83.0773 231.285 83.824 231.008 84.592C230.752 85.3387 230.571 86.0427 230.464 86.704C230.464 86.768 230.411 86.9813 230.304 87.344C230.219 87.7067 230.123 88.0587 230.016 88.4C229.931 88.7413 229.877 88.9227 229.856 88.944C229.856 89.0933 229.813 89.232 229.728 89.36C229.643 89.4667 229.536 89.5627 229.408 89.648ZM233.196 88.976C233.025 88.8053 232.897 88.592 232.812 88.336C232.748 88.08 232.726 87.824 232.748 87.568C232.769 87.312 232.822 87.0987 232.908 86.928C232.908 86.7573 232.929 86.6293 232.972 86.544C233.036 86.4373 233.057 86.3413 233.036 86.256C233.014 86.1707 233.036 86.0213 233.1 85.808C233.164 85.5947 233.228 85.392 233.292 85.2C233.441 84.8587 233.601 84.4533 233.772 83.984C233.942 83.4933 234.102 83.0133 234.252 82.544C234.401 82.0747 234.529 81.6693 234.636 81.328C234.742 80.9867 234.806 80.7733 234.828 80.688C234.828 80.432 234.998 80.2933 235.34 80.272C235.596 80.1867 235.788 80.1867 235.916 80.272C236.044 80.336 236.214 80.5387 236.428 80.88C236.598 81.0507 236.662 81.3067 236.62 81.648C236.577 81.9893 236.438 82.416 236.204 82.928C236.118 83.0987 236.012 83.344 235.884 83.664C235.777 83.984 235.702 84.272 235.66 84.528C235.574 84.6987 235.468 84.944 235.34 85.264C235.233 85.5627 235.137 85.8507 235.052 86.128C235.009 86.2347 234.966 86.3947 234.924 86.608C234.881 86.8 234.828 87.0133 234.764 87.248C234.7 87.4613 234.614 87.6533 234.508 87.824C234.316 88.6987 234.134 89.2107 233.964 89.36C233.814 89.5093 233.558 89.3813 233.196 88.976ZM236.3 75.984C236.193 75.8773 236.097 75.728 236.012 75.536C235.926 75.3227 235.873 75.1307 235.852 74.96C235.83 74.768 235.852 74.672 235.916 74.672C236.086 74.6507 236.289 74.4693 236.524 74.128C236.758 73.7867 236.854 73.488 236.812 73.232C236.812 73.1467 236.844 73.072 236.908 73.008C236.972 72.9227 237.046 72.8693 237.132 72.848C237.388 72.6773 237.633 72.656 237.868 72.784C238.124 72.8907 238.358 73.1147 238.572 73.456C238.764 73.8613 238.817 74.2027 238.732 74.48C238.646 74.736 238.412 75.0987 238.028 75.568C237.708 75.9947 237.409 76.2293 237.132 76.272C236.876 76.3147 236.598 76.2187 236.3 75.984ZM246.467 89.808C246.403 89.8293 246.253 89.7973 246.019 89.712C245.784 89.6053 245.528 89.4773 245.251 89.328C244.995 89.1573 244.792 88.9973 244.643 88.848C244.472 88.6347 244.312 88.4213 244.163 88.208C244.035 87.9733 243.971 87.7067 243.971 87.408C243.821 87.088 243.736 86.7573 243.715 86.416C243.715 86.0533 243.704 85.7013 243.683 85.36C243.661 84.8267 243.779 84.2827 244.035 83.728C244.291 83.152 244.493 82.7253 244.643 82.448C244.749 82.1493 244.963 81.7653 245.283 81.296C245.624 80.8053 246.04 80.3253 246.531 79.856C247.021 79.3867 247.533 79.024 248.067 78.768C248.408 78.5973 248.749 78.4587 249.091 78.352C249.453 78.224 249.869 78.2453 250.339 78.416C250.573 78.48 250.744 78.5653 250.851 78.672C250.957 78.7787 251.075 78.8853 251.203 78.992C251.373 78.864 251.512 78.5547 251.619 78.064C251.747 77.552 251.821 76.976 251.843 76.336C251.885 75.6747 251.853 75.0453 251.747 74.448C251.661 73.8293 251.48 73.3387 251.203 72.976C250.691 72.272 250.125 71.8133 249.507 71.6C248.888 71.3867 248.184 71.4507 247.395 71.792C247.139 71.6853 246.904 71.4827 246.691 71.184C246.499 70.8853 246.445 70.5867 246.531 70.288C246.701 70.1387 246.915 69.9893 247.171 69.84C247.427 69.6907 247.683 69.5947 247.939 69.552C248.237 69.488 248.536 69.4453 248.835 69.424C249.155 69.4027 249.485 69.488 249.827 69.68C250.936 70.0427 251.768 70.5547 252.323 71.216C252.899 71.856 253.293 72.6347 253.507 73.552C253.72 74.4693 253.848 75.5253 253.891 76.72C253.933 77.0613 253.944 77.3707 253.923 77.648C253.923 77.904 253.891 78.3413 253.827 78.96C253.613 79.2373 253.528 79.568 253.571 79.952C253.635 80.3147 253.592 80.656 253.443 80.976C253.421 81.3387 253.336 81.6373 253.187 81.872C253.037 82.1067 252.963 82.3307 252.963 82.544C252.579 83.6107 252.056 84.656 251.395 85.68C250.755 86.704 250.019 87.5893 249.187 88.336C248.355 89.0827 247.448 89.5733 246.467 89.808ZM246.275 87.728C246.488 87.8133 246.808 87.728 247.235 87.472C247.661 87.1947 248.099 86.832 248.547 86.384C248.995 85.9147 249.368 85.4667 249.667 85.04C249.773 84.8907 249.912 84.6453 250.083 84.304C250.275 83.9627 250.445 83.632 250.595 83.312C250.765 82.992 250.861 82.7893 250.883 82.704C251.075 82.1707 251.181 81.6693 251.203 81.2C251.245 80.7093 251.192 80.3893 251.043 80.24C250.808 79.9627 250.424 79.8987 249.891 80.048C249.379 80.1973 248.888 80.4427 248.419 80.784C248.077 81.04 247.768 81.3813 247.491 81.808C247.235 82.2133 246.968 82.5867 246.691 82.928C246.712 83.0773 246.669 83.2053 246.563 83.312C246.477 83.4187 246.381 83.5253 246.275 83.632C245.997 84.1653 245.816 84.6667 245.731 85.136C245.645 85.584 245.603 85.8613 245.603 85.968C245.603 86.3093 245.656 86.6613 245.763 87.024C245.869 87.3867 246.04 87.6213 246.275 87.728ZM252.436 90.128C252.372 90.1067 252.297 90.096 252.212 90.096C252.148 90.096 252.084 90.096 252.02 90.096C251.934 89.904 251.796 89.744 251.604 89.616C251.412 89.488 251.262 89.3387 251.156 89.168C251.028 88.9333 251.017 88.7413 251.124 88.592C251.252 88.4213 251.401 88.2613 251.572 88.112C251.764 87.9413 251.902 87.7493 251.988 87.536C252.116 87.472 252.361 87.3013 252.724 87.024C253.086 86.7467 253.502 86.416 253.972 86.032C254.441 85.648 254.91 85.2533 255.38 84.848C255.849 84.4213 256.265 84.0373 256.628 83.696C256.99 83.3547 257.236 83.1093 257.364 82.96C257.342 82.9387 257.321 82.9173 257.3 82.896C257.278 82.8747 257.246 82.8533 257.204 82.832C257.076 82.512 256.873 82.16 256.596 81.776C256.318 81.3707 256.03 80.976 255.732 80.592C255.454 80.1867 255.23 79.8347 255.06 79.536C254.932 79.3013 254.825 79.0773 254.74 78.864C254.676 78.6507 254.59 78.4373 254.484 78.224C254.526 78.1387 254.569 78.0533 254.612 77.968C254.676 77.8827 254.718 77.7973 254.74 77.712C255.166 77.6907 255.508 77.7547 255.764 77.904C256.02 78.0533 256.308 78.256 256.628 78.512C256.713 78.576 256.862 78.7893 257.076 79.152C257.289 79.5147 257.524 79.9307 257.78 80.4C258.057 80.848 258.334 81.2533 258.612 81.616C258.889 81.9573 259.134 82.16 259.348 82.224C259.497 81.84 259.636 81.36 259.764 80.784C259.913 80.208 260.041 79.632 260.148 79.056C260.276 78.48 260.361 77.9893 260.404 77.584C260.489 77.4773 260.564 77.392 260.628 77.328C260.713 77.2427 260.798 77.1573 260.884 77.072C261.182 77.1573 261.428 77.2853 261.62 77.456C261.812 77.6053 262.036 77.7547 262.292 77.904C262.292 78.7573 262.153 79.6427 261.876 80.56C261.62 81.4773 261.406 82.3413 261.236 83.152C261.236 83.1733 261.236 83.2053 261.236 83.248C261.236 83.2693 261.246 83.2907 261.268 83.312C261.758 83.0773 262.27 82.7573 262.804 82.352C263.358 81.9467 263.902 81.52 264.436 81.072C264.99 80.624 265.481 80.24 265.908 79.92C266.121 79.6 266.388 79.312 266.708 79.056C267.028 78.7787 267.294 78.48 267.508 78.16C267.614 78.16 267.71 78.16 267.796 78.16C267.881 78.16 267.966 78.16 268.052 78.16C268.158 78.2453 268.297 78.3627 268.468 78.512C268.638 78.6613 268.798 78.8533 268.948 79.088C268.926 79.2373 268.894 79.376 268.852 79.504C268.809 79.632 268.734 79.7493 268.628 79.856C268.094 80.3893 267.529 80.9013 266.932 81.392C266.356 81.8613 265.705 82.3733 264.98 82.928C264.617 83.2053 264.244 83.4613 263.86 83.696C263.497 83.9307 263.156 84.208 262.836 84.528C263.22 84.784 263.657 85.1253 264.148 85.552C264.66 85.9787 265.14 86.416 265.588 86.864C266.057 87.312 266.43 87.728 266.708 88.112C266.921 88.3893 266.996 88.6453 266.932 88.88C266.868 89.1147 266.718 89.296 266.484 89.424C266.27 89.552 266.036 89.616 265.78 89.616C265.524 89.616 265.31 89.5307 265.14 89.36C264.905 89.1253 264.681 88.88 264.468 88.624C264.254 88.3467 264.03 88.0907 263.796 87.856C263.348 87.408 262.878 86.9173 262.388 86.384C261.897 85.8507 261.406 85.3813 260.916 84.976C260.894 84.9333 260.862 84.912 260.82 84.912C260.798 84.8907 260.766 84.8693 260.724 84.848C260.553 85.3387 260.372 85.904 260.18 86.544C259.988 87.1627 259.849 87.7387 259.764 88.272C259.721 88.592 259.604 88.848 259.412 89.04C259.22 89.232 258.974 89.3813 258.676 89.488C258.484 89.36 258.302 89.232 258.132 89.104C257.982 88.976 257.822 88.8373 257.652 88.688C257.524 88.56 257.513 88.2827 257.62 87.856C257.726 87.4293 257.876 86.9493 258.068 86.416C258.26 85.8827 258.42 85.4027 258.548 84.976C258.676 84.5493 258.708 84.272 258.644 84.144C258.494 84.2933 258.228 84.56 257.844 84.944C257.46 85.3067 257.033 85.7013 256.564 86.128C256.116 86.5547 255.7 86.9387 255.316 87.28C254.953 87.6213 254.708 87.824 254.58 87.888C254.366 88.208 254.025 88.6027 253.556 89.072C253.108 89.5413 252.734 89.8933 252.436 90.128ZM273.419 88.88C272.971 89.264 272.449 89.488 271.851 89.552C271.275 89.616 270.71 89.5307 270.155 89.296C269.601 89.04 269.142 88.656 268.779 88.144C268.417 87.6747 268.182 87.1413 268.075 86.544C267.969 85.9253 267.958 85.1253 268.043 84.144C268.107 83.312 268.374 82.48 268.843 81.648C269.313 80.7947 269.878 80.0373 270.539 79.376C271.222 78.7147 271.894 78.256 272.555 78C272.875 77.7867 273.142 77.6907 273.355 77.712C273.59 77.712 273.942 77.7333 274.411 77.776C274.902 77.84 275.265 77.936 275.499 78.064C275.755 78.192 275.958 78.3627 276.107 78.576C276.427 78.896 276.641 79.216 276.747 79.536C276.854 79.8347 276.907 80.1333 276.907 80.432C276.822 80.9013 276.502 81.4773 275.947 82.16C275.414 82.8213 274.71 83.3653 273.835 83.792C273.366 83.9413 272.854 84.0053 272.299 83.984C271.745 83.9627 271.286 83.824 270.923 83.568C270.518 83.3973 270.251 83.4293 270.123 83.664C269.995 83.8773 269.878 84.4107 269.771 85.264C269.686 86.0747 269.75 86.672 269.963 87.056C270.177 87.4187 270.465 87.632 270.827 87.696C271.254 87.7813 271.585 87.8453 271.819 87.888C272.075 87.9093 272.385 87.8133 272.747 87.6C273.089 87.3867 273.302 87.2693 273.387 87.248C273.473 87.2053 273.537 87.1627 273.579 87.12C273.643 87.056 273.782 86.9173 273.995 86.704C274.145 86.5547 274.262 86.448 274.347 86.384C274.433 86.2987 274.529 86.256 274.635 86.256C274.742 86.256 274.838 86.3093 274.923 86.416C275.009 86.5013 275.094 86.5653 275.179 86.608C275.393 86.608 275.435 86.736 275.307 86.992C275.201 87.248 274.977 87.5573 274.635 87.92C274.294 88.2613 273.889 88.5813 273.419 88.88ZM273.387 82.096C273.622 81.9893 273.867 81.84 274.123 81.648C274.379 81.4347 274.593 81.2107 274.763 80.976C274.955 80.72 275.051 80.5067 275.051 80.336C275.051 80.0373 274.913 79.792 274.635 79.6C274.358 79.3867 273.942 79.3547 273.387 79.504C273.153 79.568 272.886 79.728 272.587 79.984C272.289 80.2187 272.001 80.4853 271.723 80.784C271.467 81.0827 271.254 81.3493 271.083 81.584C270.934 81.8187 270.881 81.9573 270.923 82C270.987 82.1067 271.169 82.192 271.467 82.256C271.766 82.2987 272.097 82.3093 272.459 82.288C272.843 82.2667 273.153 82.2027 273.387 82.096ZM275.186 97.136C275.036 97.072 274.876 96.9653 274.706 96.816C274.535 96.6667 274.396 96.496 274.29 96.304C274.183 96.1333 274.13 95.984 274.13 95.856C274.13 95.728 274.183 95.3867 274.29 94.832C274.396 94.2987 274.535 93.6373 274.706 92.848C274.898 92.08 275.1 91.2907 275.314 90.48C275.548 89.6907 275.783 88.9867 276.018 88.368C276.06 88.2613 276.199 87.9093 276.434 87.312C276.69 86.6933 276.935 85.9467 277.17 85.072C277.34 84.5173 277.564 83.888 277.842 83.184C278.119 82.48 278.407 81.776 278.706 81.072C279.004 80.3467 279.25 79.7067 279.442 79.152C279.634 78.5973 279.794 78.1493 279.922 77.808C280.071 77.4453 280.156 77.2213 280.178 77.136C280.22 77.008 280.284 76.9013 280.37 76.816C280.476 76.7093 280.583 76.624 280.69 76.56C280.796 76.4747 280.882 76.4213 280.946 76.4C281.33 76.2933 281.66 76.4533 281.938 76.88C282.044 77.072 282.066 77.296 282.002 77.552C281.938 77.808 281.82 78.128 281.65 78.512L281.426 79.152L282.578 78.896C282.77 78.896 283.004 78.9067 283.282 78.928C283.58 78.928 283.868 78.928 284.146 78.928C284.423 78.928 284.626 78.9493 284.754 78.992C285.266 79.0133 285.618 79.1093 285.81 79.28C286.023 79.4507 286.204 79.6747 286.354 79.952C286.46 80.0587 286.588 80.208 286.738 80.4C286.887 80.5707 286.972 80.7413 286.994 80.912C287.079 81.2747 287.079 81.6693 286.994 82.096C286.93 82.5013 286.802 82.9067 286.61 83.312C286.439 83.7173 286.204 84.0907 285.906 84.432C285.628 84.752 285.33 85.0187 285.01 85.232C284.796 85.3173 284.604 85.4133 284.434 85.52C284.263 85.6053 284.178 85.648 284.178 85.648C284.156 85.7547 283.922 85.9253 283.474 86.16C283.026 86.3733 282.514 86.576 281.938 86.768C281.362 86.96 280.86 87.088 280.434 87.152C280.284 87.1733 280.071 87.1947 279.794 87.216C279.516 87.2373 279.303 87.2053 279.154 87.12C278.919 87.0773 278.759 87.056 278.674 87.056C278.588 87.056 278.546 87.0987 278.546 87.184C278.524 87.2267 278.375 87.6747 278.098 88.528C277.82 89.3813 277.532 90.3733 277.234 91.504C276.828 92.7413 276.498 93.7227 276.242 94.448C275.986 95.1947 275.783 95.7493 275.634 96.112C275.506 96.4747 275.41 96.72 275.346 96.848C275.282 96.9973 275.228 97.0933 275.186 97.136ZM279.186 85.328C279.25 85.456 279.452 85.4987 279.794 85.456C280.156 85.392 280.583 85.264 281.074 85.072C281.586 84.8587 282.087 84.624 282.578 84.368C283.068 84.0907 283.474 83.8133 283.794 83.536C284.263 83.0027 284.647 82.512 284.946 82.064C285.244 81.5947 285.287 81.2853 285.074 81.136C284.839 80.7947 284.402 80.6347 283.762 80.656C283.122 80.6773 282.332 80.944 281.394 81.456C281.031 81.584 280.754 81.7547 280.562 81.968C280.391 82.16 280.242 82.4053 280.114 82.704C279.986 83.0027 279.826 83.3653 279.634 83.792C279.442 84.2613 279.314 84.6133 279.25 84.848C279.186 85.0827 279.164 85.2427 279.186 85.328ZM290.159 90.096C289.221 90.096 288.453 89.744 287.855 89.04C287.258 88.3147 286.97 87.4187 286.991 86.352C287.034 85.584 287.183 84.7627 287.439 83.888C287.717 82.992 288.079 82.1387 288.527 81.328C288.975 80.496 289.466 79.7707 289.999 79.152C290.533 78.5333 291.087 78.096 291.663 77.84C291.877 77.7333 292.101 77.648 292.335 77.584C292.591 77.52 292.847 77.488 293.103 77.488C293.338 77.488 293.583 77.5307 293.839 77.616C294.095 77.68 294.309 77.7547 294.479 77.84C294.842 77.9893 295.119 78.1707 295.311 78.384C295.503 78.5973 295.674 78.928 295.823 79.376C295.887 79.7813 295.919 80.0693 295.919 80.24C295.919 80.4107 295.866 80.6667 295.759 81.008C295.503 81.776 295.173 82.4373 294.767 82.992C294.362 83.5467 293.818 84.016 293.135 84.4C292.965 84.5067 292.762 84.592 292.527 84.656C292.314 84.6987 292.09 84.72 291.855 84.72C291.429 84.72 291.013 84.6453 290.607 84.496C290.223 84.3253 289.914 84.08 289.679 83.76L289.455 83.504L289.359 83.76C289.146 84.336 288.975 84.8693 288.847 85.36C288.741 85.8507 288.687 86.2987 288.687 86.704C288.687 86.96 288.709 87.2053 288.751 87.44C288.815 87.6747 288.901 87.8773 289.007 88.048C289.093 88.176 289.231 88.272 289.423 88.336C289.637 88.3787 289.861 88.4 290.095 88.4C290.245 88.4 290.394 88.4 290.543 88.4C290.714 88.3787 290.874 88.336 291.023 88.272C291.386 88.144 291.674 88.0053 291.887 87.856C292.122 87.7067 292.357 87.5467 292.591 87.376L292.719 87.312H292.687C292.943 87.184 293.167 87.056 293.359 86.928C293.573 86.8 293.679 86.736 293.679 86.736C293.765 86.736 293.85 86.6827 293.935 86.576C294.106 86.4907 294.319 86.5227 294.575 86.672C294.853 86.8213 294.991 87.0133 294.991 87.248C294.97 87.3547 294.874 87.5253 294.703 87.76C294.533 87.9733 294.341 88.176 294.127 88.368C293.935 88.56 293.775 88.6667 293.647 88.688C293.626 88.7093 293.551 88.752 293.423 88.816C293.295 88.8587 293.21 88.9013 293.167 88.944H293.199C293.007 89.2 292.815 89.328 292.623 89.328H292.367C292.282 89.4773 292.005 89.648 291.535 89.84C291.066 90.0107 290.607 90.096 290.159 90.096ZM291.599 83.056C291.983 83.056 292.314 82.9493 292.591 82.736C292.89 82.5013 293.146 82.2453 293.359 81.968C293.786 81.392 294.031 80.8373 294.095 80.304C294.181 79.7493 294.117 79.3653 293.903 79.152C293.775 79.088 293.658 79.056 293.551 79.056C293.466 79.0347 293.285 79.0667 293.007 79.152C292.815 79.1947 292.549 79.3547 292.207 79.632C291.866 79.9093 291.525 80.2187 291.183 80.56C290.863 80.9013 290.618 81.1893 290.447 81.424L290.031 82.096C290.202 82.032 290.362 82 290.511 82C290.682 81.9787 290.778 81.9893 290.799 82.032C290.799 82.224 290.831 82.4053 290.895 82.576C290.981 82.7253 291.077 82.8427 291.183 82.928C291.311 83.0133 291.45 83.056 291.599 83.056ZM294.518 89.872C294.432 89.8293 294.315 89.744 294.166 89.616C294.038 89.488 293.92 89.36 293.814 89.232C293.75 89.168 293.696 89.1147 293.654 89.072C293.611 89.008 293.568 88.9653 293.526 88.944C293.526 88.7947 293.558 88.688 293.622 88.624C293.707 88.56 293.792 88.4853 293.878 88.4C293.963 88.272 294.102 88.208 294.294 88.208C294.486 88.208 294.635 88.1547 294.742 88.048C295.126 87.7707 295.52 87.4827 295.926 87.184C296.331 86.8853 296.672 86.5333 296.95 86.128C297.248 85.7013 297.547 85.2427 297.846 84.752C298.144 84.2613 298.432 83.7813 298.71 83.312C298.795 83.1627 298.934 82.896 299.126 82.512C299.318 82.128 299.499 81.7547 299.67 81.392C299.862 81.008 299.968 80.7413 299.99 80.592C299.798 80.528 299.616 80.4747 299.446 80.432C299.296 80.368 299.147 80.3147 298.998 80.272C298.806 79.9733 298.699 79.8027 298.678 79.76C298.656 79.696 298.646 79.4933 298.646 79.152C298.646 78.896 298.784 78.736 299.062 78.672C299.68 78.5227 300.224 78.4267 300.694 78.384C301.184 78.3413 301.664 78.256 302.134 78.128C302.432 78.0427 302.795 78.0107 303.222 78.032C303.648 78.0533 304.075 78.1493 304.502 78.32C304.694 78.4053 304.854 78.512 304.982 78.64C305.11 78.768 305.227 78.9173 305.334 79.088C305.611 79.472 305.75 79.8027 305.75 80.08C305.771 80.3573 305.76 80.624 305.718 80.88C305.675 81.136 305.707 81.424 305.814 81.744C305.664 82.32 305.515 82.832 305.366 83.28C305.216 83.7067 305.078 84.112 304.95 84.496C304.822 84.8587 304.704 85.2 304.598 85.52C304.491 85.84 304.406 86.16 304.342 86.48C304.256 86.8213 304.15 87.1627 304.022 87.504C303.894 87.8453 303.798 88.1973 303.734 88.56C303.691 88.8373 303.563 89.04 303.35 89.168C303.158 89.296 302.944 89.4133 302.71 89.52C302.624 89.5413 302.475 89.52 302.262 89.456C302.07 89.3707 301.888 89.2533 301.718 89.104C301.654 88.8693 301.632 88.656 301.654 88.464C301.675 88.272 301.718 88.08 301.782 87.888C301.846 87.7173 301.963 87.3333 302.134 86.736C302.304 86.1387 302.496 85.4667 302.71 84.72C302.923 83.9733 303.126 83.28 303.318 82.64C303.51 82 303.638 81.552 303.702 81.296C303.808 80.9547 303.84 80.6987 303.798 80.528C303.776 80.3573 303.744 80.1973 303.702 80.048C303.254 79.8773 302.944 79.824 302.774 79.888C302.624 79.9307 302.432 79.9733 302.198 80.016C302.091 80.1013 302.006 80.1973 301.942 80.304C301.878 80.4107 301.835 80.5173 301.814 80.624C301.579 81.2427 301.376 81.7333 301.206 82.096C301.056 82.4587 300.907 82.7893 300.758 83.088C300.608 83.3653 300.438 83.6747 300.246 84.016C300.075 84.3573 299.851 84.8267 299.574 85.424C299.403 85.808 299.19 86.16 298.934 86.48C298.699 86.8 298.486 87.1413 298.294 87.504L297.942 87.952C297.963 87.952 297.878 88.0373 297.686 88.208C297.494 88.3787 297.302 88.5493 297.11 88.72C296.939 88.8907 296.854 88.976 296.854 88.976L295.862 89.744C295.755 89.8293 295.574 89.872 295.318 89.872C295.062 89.872 294.795 89.872 294.518 89.872ZM307.59 88.944C307.334 88.9867 307.057 88.944 306.758 88.816C306.46 88.688 306.193 88.5067 305.958 88.272C305.745 88.0373 305.606 87.792 305.542 87.536C305.457 87.088 305.51 86.5333 305.702 85.872C305.916 85.1893 306.214 84.4747 306.598 83.728C307.004 82.96 307.452 82.224 307.942 81.52C308.454 80.816 308.977 80.208 309.51 79.696C310.065 79.1627 310.577 78.8 311.046 78.608C311.281 78.4587 311.462 78.3627 311.59 78.32C311.74 78.256 311.889 78.2453 312.038 78.288C312.209 78.3307 312.454 78.4373 312.774 78.608C313.073 78.6933 313.297 78.7893 313.446 78.896C313.596 79.0027 313.788 79.216 314.022 79.536C314.193 79.856 314.321 80.176 314.406 80.496C314.492 80.816 314.566 81.1787 314.63 81.584C314.801 82.1173 314.865 82.4693 314.822 82.64C314.78 82.7893 314.716 82.9067 314.63 82.992C314.46 83.2053 314.417 83.312 314.502 83.312C314.502 83.312 314.492 83.3547 314.47 83.44C314.47 83.504 314.428 83.6107 314.342 83.76C314.193 84.2293 314.076 84.72 313.99 85.232C313.926 85.7227 313.937 86.128 314.022 86.448C314.193 86.9173 314.502 87.1947 314.95 87.28C315.398 87.3653 315.857 87.1733 316.326 86.704C316.561 86.5333 316.785 86.384 316.998 86.256C317.212 86.1067 317.318 86.1173 317.318 86.288C317.318 86.288 317.35 86.32 317.414 86.384C317.478 86.4267 317.553 86.448 317.638 86.448C317.745 86.448 317.809 86.4907 317.83 86.576C317.873 86.6613 317.873 86.7787 317.83 86.928C317.809 87.056 317.745 87.2053 317.638 87.376C317.318 87.696 317.158 87.9093 317.158 88.016C317.158 88.016 317.116 88.0587 317.03 88.144C316.966 88.208 316.849 88.3147 316.678 88.464C316.294 88.6987 315.804 88.816 315.206 88.816C314.63 88.816 314.182 88.6987 313.862 88.464C313.542 88.2293 313.244 87.9093 312.966 87.504C312.71 87.0987 312.54 86.7467 312.454 86.448L312.294 86.128L311.366 86.736C311.132 86.9707 310.876 87.1947 310.598 87.408C310.342 87.6213 310.172 87.7707 310.086 87.856C310.022 87.9413 309.948 88.016 309.862 88.08C309.798 88.144 309.724 88.176 309.638 88.176C309.553 88.176 309.478 88.176 309.414 88.176C309.35 88.176 309.318 88.176 309.318 88.176C309.318 88.2613 309.212 88.368 308.998 88.496C308.806 88.624 308.572 88.7307 308.294 88.816C308.038 88.9013 307.804 88.944 307.59 88.944ZM307.27 87.216C307.398 87.216 307.622 87.12 307.942 86.928C308.284 86.7147 308.657 86.4693 309.062 86.192C309.489 85.9147 309.862 85.6373 310.182 85.36C310.524 85.0827 310.758 84.8693 310.886 84.72C310.972 84.6347 311.11 84.496 311.302 84.304C311.494 84.0907 311.665 83.9093 311.814 83.76C312.305 83.2053 312.646 82.5973 312.838 81.936C313.03 81.2533 313.009 80.72 312.774 80.336C312.689 80.1013 312.582 79.9733 312.454 79.952C312.326 79.9307 312.06 80.0053 311.654 80.176C311.398 80.3253 311.078 80.6133 310.694 81.04C310.332 81.4453 309.937 81.9253 309.51 82.48C309.105 83.0133 308.721 83.568 308.358 84.144C307.996 84.72 307.697 85.2533 307.462 85.744C307.228 86.2347 307.11 86.6187 307.11 86.896C307.11 86.9813 307.132 87.056 307.174 87.12C307.238 87.184 307.27 87.216 307.27 87.216ZM328.913 88.88C328.465 89.264 327.943 89.488 327.345 89.552C326.769 89.616 326.204 89.5307 325.649 89.296C325.095 89.04 324.636 88.656 324.273 88.144C323.911 87.6747 323.676 87.1413 323.569 86.544C323.463 85.9253 323.452 85.1253 323.537 84.144C323.601 83.312 323.868 82.48 324.337 81.648C324.807 80.7947 325.372 80.0373 326.033 79.376C326.716 78.7147 327.388 78.256 328.049 78C328.369 77.7867 328.636 77.6907 328.849 77.712C329.084 77.712 329.436 77.7333 329.905 77.776C330.396 77.84 330.759 77.936 330.993 78.064C331.249 78.192 331.452 78.3627 331.601 78.576C331.921 78.896 332.135 79.216 332.241 79.536C332.348 79.8347 332.401 80.1333 332.401 80.432C332.316 80.9013 331.996 81.4773 331.441 82.16C330.908 82.8213 330.204 83.3653 329.329 83.792C328.86 83.9413 328.348 84.0053 327.793 83.984C327.239 83.9627 326.78 83.824 326.417 83.568C326.012 83.3973 325.745 83.4293 325.617 83.664C325.489 83.8773 325.372 84.4107 325.265 85.264C325.18 86.0747 325.244 86.672 325.457 87.056C325.671 87.4187 325.959 87.632 326.321 87.696C326.748 87.7813 327.079 87.8453 327.313 87.888C327.569 87.9093 327.879 87.8133 328.241 87.6C328.583 87.3867 328.796 87.2693 328.881 87.248C328.967 87.2053 329.031 87.1627 329.073 87.12C329.137 87.056 329.276 86.9173 329.489 86.704C329.639 86.5547 329.756 86.448 329.841 86.384C329.927 86.2987 330.023 86.256 330.129 86.256C330.236 86.256 330.332 86.3093 330.417 86.416C330.503 86.5013 330.588 86.5653 330.673 86.608C330.887 86.608 330.929 86.736 330.801 86.992C330.695 87.248 330.471 87.5573 330.129 87.92C329.788 88.2613 329.383 88.5813 328.913 88.88ZM328.881 82.096C329.116 81.9893 329.361 81.84 329.617 81.648C329.873 81.4347 330.087 81.2107 330.257 80.976C330.449 80.72 330.545 80.5067 330.545 80.336C330.545 80.0373 330.407 79.792 330.129 79.6C329.852 79.3867 329.436 79.3547 328.881 79.504C328.647 79.568 328.38 79.728 328.081 79.984C327.783 80.2187 327.495 80.4853 327.217 80.784C326.961 81.0827 326.748 81.3493 326.577 81.584C326.428 81.8187 326.375 81.9573 326.417 82C326.481 82.1067 326.663 82.192 326.961 82.256C327.26 82.2987 327.591 82.3093 327.953 82.288C328.337 82.2667 328.647 82.2027 328.881 82.096ZM339.895 89.648C339.767 89.6053 339.639 89.5733 339.511 89.552C339.383 89.5093 339.255 89.4667 339.127 89.424C339.021 89.3813 338.893 89.3493 338.743 89.328C338.53 89.0293 338.445 88.6667 338.487 88.24C338.53 87.792 338.626 87.3333 338.775 86.864C338.946 86.3947 339.106 85.936 339.255 85.488C339.426 85.04 339.522 84.656 339.543 84.336C339.522 84.2507 339.49 84.2293 339.447 84.272C339.405 84.2933 339.383 84.3253 339.383 84.368C339.234 84.5387 339.021 84.656 338.743 84.72C338.466 84.784 338.21 84.8373 337.975 84.88C337.57 84.944 337.165 85.0187 336.759 85.104C336.354 85.1893 335.959 85.2853 335.575 85.392C335.511 85.3493 335.437 85.296 335.351 85.232C335.287 85.168 335.223 85.1147 335.159 85.072C335.01 85.072 334.882 85.2107 334.775 85.488C334.669 85.7653 334.573 86.1067 334.487 86.512C334.402 86.896 334.317 87.2693 334.231 87.632C334.167 87.9733 334.103 88.2187 334.039 88.368C333.698 88.4107 333.453 88.4213 333.303 88.4C333.175 88.3787 332.93 88.3147 332.567 88.208C332.397 87.9733 332.301 87.7493 332.279 87.536C332.279 87.3227 332.311 87.088 332.375 86.832C332.482 86.3413 332.567 85.9467 332.631 85.648C332.717 85.3493 332.855 84.9653 333.047 84.496C333.154 84.2613 333.25 84.0373 333.335 83.824C333.442 83.5893 333.495 83.3333 333.495 83.056C333.666 82.8427 333.783 82.608 333.847 82.352C333.911 82.096 333.986 81.84 334.071 81.584C334.413 80.7093 334.679 80.0373 334.871 79.568C335.085 79.0773 335.234 78.6933 335.319 78.416C335.405 78.1387 335.458 77.8827 335.479 77.648C335.501 77.3493 335.682 77.2 336.023 77.2C336.237 77.2 336.461 77.2853 336.695 77.456C336.93 77.6053 337.111 77.7973 337.239 78.032C337.367 78.2667 337.378 78.512 337.271 78.768C337.207 78.9387 337.101 79.216 336.951 79.6C336.823 79.9627 336.674 80.368 336.503 80.816C336.354 81.2427 336.205 81.648 336.055 82.032C335.927 82.3947 335.821 82.6613 335.735 82.832C335.714 82.9173 335.671 82.992 335.607 83.056C335.543 83.0987 335.511 83.1733 335.511 83.28C335.661 83.3867 335.906 83.4293 336.247 83.408C336.61 83.3653 336.866 83.3013 337.015 83.216C337.335 83.216 337.645 83.216 337.943 83.216C338.263 83.216 338.583 83.216 338.903 83.216C339.223 83.408 339.469 83.696 339.639 84.08C339.789 83.6747 339.991 83.1413 340.247 82.48C340.503 81.7973 340.749 81.1253 340.983 80.464C341.218 79.8027 341.357 79.3013 341.399 78.96C341.442 78.768 341.527 78.5973 341.655 78.448C341.783 78.2987 341.922 78.1813 342.071 78.096C342.37 78.2453 342.658 78.3733 342.935 78.48C343.234 78.5653 343.426 78.8107 343.511 79.216C343.49 79.408 343.447 79.6 343.383 79.792C343.319 79.9627 343.255 80.1333 343.191 80.304C342.978 80.9227 342.711 81.6053 342.391 82.352C342.071 83.0773 341.773 83.824 341.495 84.592C341.239 85.3387 341.058 86.0427 340.951 86.704C340.951 86.768 340.898 86.9813 340.791 87.344C340.706 87.7067 340.61 88.0587 340.503 88.4C340.418 88.7413 340.365 88.9227 340.343 88.944C340.343 89.0933 340.301 89.232 340.215 89.36C340.13 89.4667 340.023 89.5627 339.895 89.648ZM346.403 90.096C345.465 90.096 344.697 89.744 344.099 89.04C343.502 88.3147 343.214 87.4187 343.235 86.352C343.278 85.584 343.427 84.7627 343.683 83.888C343.961 82.992 344.323 82.1387 344.771 81.328C345.219 80.496 345.71 79.7707 346.243 79.152C346.777 78.5333 347.331 78.096 347.907 77.84C348.121 77.7333 348.345 77.648 348.579 77.584C348.835 77.52 349.091 77.488 349.347 77.488C349.582 77.488 349.827 77.5307 350.083 77.616C350.339 77.68 350.553 77.7547 350.723 77.84C351.086 77.9893 351.363 78.1707 351.555 78.384C351.747 78.5973 351.918 78.928 352.067 79.376C352.131 79.7813 352.163 80.0693 352.163 80.24C352.163 80.4107 352.11 80.6667 352.003 81.008C351.747 81.776 351.417 82.4373 351.011 82.992C350.606 83.5467 350.062 84.016 349.379 84.4C349.209 84.5067 349.006 84.592 348.771 84.656C348.558 84.6987 348.334 84.72 348.099 84.72C347.673 84.72 347.257 84.6453 346.851 84.496C346.467 84.3253 346.158 84.08 345.923 83.76L345.699 83.504L345.603 83.76C345.39 84.336 345.219 84.8693 345.091 85.36C344.985 85.8507 344.931 86.2987 344.931 86.704C344.931 86.96 344.953 87.2053 344.995 87.44C345.059 87.6747 345.145 87.8773 345.251 88.048C345.337 88.176 345.475 88.272 345.667 88.336C345.881 88.3787 346.105 88.4 346.339 88.4C346.489 88.4 346.638 88.4 346.787 88.4C346.958 88.3787 347.118 88.336 347.267 88.272C347.63 88.144 347.918 88.0053 348.131 87.856C348.366 87.7067 348.601 87.5467 348.835 87.376L348.963 87.312H348.931C349.187 87.184 349.411 87.056 349.603 86.928C349.817 86.8 349.923 86.736 349.923 86.736C350.009 86.736 350.094 86.6827 350.179 86.576C350.35 86.4907 350.563 86.5227 350.819 86.672C351.097 86.8213 351.235 87.0133 351.235 87.248C351.214 87.3547 351.118 87.5253 350.947 87.76C350.777 87.9733 350.585 88.176 350.371 88.368C350.179 88.56 350.019 88.6667 349.891 88.688C349.87 88.7093 349.795 88.752 349.667 88.816C349.539 88.8587 349.454 88.9013 349.411 88.944H349.443C349.251 89.2 349.059 89.328 348.867 89.328H348.611C348.526 89.4773 348.249 89.648 347.779 89.84C347.31 90.0107 346.851 90.096 346.403 90.096ZM347.843 83.056C348.227 83.056 348.558 82.9493 348.835 82.736C349.134 82.5013 349.39 82.2453 349.603 81.968C350.03 81.392 350.275 80.8373 350.339 80.304C350.425 79.7493 350.361 79.3653 350.147 79.152C350.019 79.088 349.902 79.056 349.795 79.056C349.71 79.0347 349.529 79.0667 349.251 79.152C349.059 79.1947 348.793 79.3547 348.451 79.632C348.11 79.9093 347.769 80.2187 347.427 80.56C347.107 80.9013 346.862 81.1893 346.691 81.424L346.275 82.096C346.446 82.032 346.606 82 346.755 82C346.926 81.9787 347.022 81.9893 347.043 82.032C347.043 82.224 347.075 82.4053 347.139 82.576C347.225 82.7253 347.321 82.8427 347.427 82.928C347.555 83.0133 347.694 83.056 347.843 83.056ZM350.73 97.136C350.58 97.072 350.42 96.9653 350.25 96.816C350.079 96.6667 349.94 96.496 349.834 96.304C349.727 96.1333 349.674 95.984 349.674 95.856C349.674 95.728 349.727 95.3867 349.834 94.832C349.94 94.2987 350.079 93.6373 350.25 92.848C350.442 92.08 350.644 91.2907 350.858 90.48C351.092 89.6907 351.327 88.9867 351.562 88.368C351.604 88.2613 351.743 87.9093 351.978 87.312C352.234 86.6933 352.479 85.9467 352.714 85.072C352.884 84.5173 353.108 83.888 353.386 83.184C353.663 82.48 353.951 81.776 354.25 81.072C354.548 80.3467 354.794 79.7067 354.986 79.152C355.178 78.5973 355.338 78.1493 355.466 77.808C355.615 77.4453 355.7 77.2213 355.722 77.136C355.764 77.008 355.828 76.9013 355.914 76.816C356.02 76.7093 356.127 76.624 356.234 76.56C356.34 76.4747 356.426 76.4213 356.49 76.4C356.874 76.2933 357.204 76.4533 357.482 76.88C357.588 77.072 357.61 77.296 357.546 77.552C357.482 77.808 357.364 78.128 357.194 78.512L356.97 79.152L358.122 78.896C358.314 78.896 358.548 78.9067 358.826 78.928C359.124 78.928 359.412 78.928 359.69 78.928C359.967 78.928 360.17 78.9493 360.298 78.992C360.81 79.0133 361.162 79.1093 361.354 79.28C361.567 79.4507 361.748 79.6747 361.898 79.952C362.004 80.0587 362.132 80.208 362.282 80.4C362.431 80.5707 362.516 80.7413 362.538 80.912C362.623 81.2747 362.623 81.6693 362.538 82.096C362.474 82.5013 362.346 82.9067 362.154 83.312C361.983 83.7173 361.748 84.0907 361.45 84.432C361.172 84.752 360.874 85.0187 360.554 85.232C360.34 85.3173 360.148 85.4133 359.978 85.52C359.807 85.6053 359.722 85.648 359.722 85.648C359.7 85.7547 359.466 85.9253 359.018 86.16C358.57 86.3733 358.058 86.576 357.482 86.768C356.906 86.96 356.404 87.088 355.978 87.152C355.828 87.1733 355.615 87.1947 355.338 87.216C355.06 87.2373 354.847 87.2053 354.698 87.12C354.463 87.0773 354.303 87.056 354.218 87.056C354.132 87.056 354.09 87.0987 354.09 87.184C354.068 87.2267 353.919 87.6747 353.641 88.528C353.364 89.3813 353.076 90.3733 352.778 91.504C352.372 92.7413 352.042 93.7227 351.786 94.448C351.53 95.1947 351.327 95.7493 351.178 96.112C351.05 96.4747 350.954 96.72 350.89 96.848C350.826 96.9973 350.772 97.0933 350.73 97.136ZM354.73 85.328C354.794 85.456 354.996 85.4987 355.338 85.456C355.7 85.392 356.127 85.264 356.618 85.072C357.13 84.8587 357.631 84.624 358.122 84.368C358.612 84.0907 359.018 83.8133 359.338 83.536C359.807 83.0027 360.191 82.512 360.49 82.064C360.788 81.5947 360.831 81.2853 360.618 81.136C360.383 80.7947 359.946 80.6347 359.306 80.656C358.666 80.6773 357.876 80.944 356.938 81.456C356.575 81.584 356.298 81.7547 356.106 81.968C355.935 82.16 355.786 82.4053 355.658 82.704C355.53 83.0027 355.37 83.3653 355.178 83.792C354.986 84.2613 354.858 84.6133 354.794 84.848C354.73 85.0827 354.708 85.2427 354.73 85.328ZM362.791 89.936C362.727 89.8507 362.663 89.7867 362.599 89.744C362.535 89.68 362.461 89.616 362.375 89.552C362.311 89.4667 362.205 89.36 362.055 89.232C362.034 88.976 362.066 88.624 362.151 88.176C362.258 87.728 362.375 87.28 362.503 86.832C362.631 86.384 362.738 86.0533 362.823 85.84C362.823 85.84 362.877 85.6587 362.983 85.296C363.111 84.9333 363.261 84.496 363.431 83.984C363.602 83.4507 363.773 82.928 363.943 82.416C364.135 81.8827 364.285 81.4453 364.391 81.104C364.519 80.7413 364.583 80.56 364.583 80.56C364.626 80.4747 364.647 80.3893 364.647 80.304C364.647 80.1973 364.647 80.0693 364.647 79.92C364.583 79.536 364.615 79.248 364.743 79.056C364.893 78.864 365.01 78.6613 365.095 78.448C365.33 78.4693 365.49 78.4693 365.575 78.448C365.682 78.4267 365.799 78.448 365.927 78.512C366.077 78.5333 366.365 78.512 366.791 78.448C367.218 78.384 367.645 78.2987 368.071 78.192C368.519 78.0853 368.818 78 368.967 77.936C369.266 77.936 369.554 77.9253 369.831 77.904C370.13 77.8827 370.418 77.8933 370.695 77.936C371.058 77.936 371.378 78.064 371.655 78.32C371.933 78.576 372.125 78.7787 372.231 78.928C372.189 79.0133 372.135 79.0987 372.071 79.184C372.029 79.248 371.986 79.312 371.943 79.376C371.901 79.44 371.847 79.504 371.783 79.568C371.655 79.568 371.389 79.568 370.983 79.568C370.578 79.568 370.141 79.5893 369.671 79.632C369.223 79.6747 368.85 79.7493 368.551 79.856C368.274 79.9413 367.975 79.9947 367.655 80.016C367.357 80.016 367.079 80.0693 366.823 80.176C366.717 80.2827 366.61 80.496 366.503 80.816C366.397 81.136 366.301 81.4667 366.215 81.808C366.13 82.1493 366.055 82.4053 365.991 82.576C365.991 82.5547 365.927 82.704 365.799 83.024C365.693 83.344 365.565 83.7067 365.415 84.112C365.287 84.5173 365.181 84.848 365.095 85.104C365.01 85.232 364.903 85.4773 364.775 85.84C364.647 86.2027 364.53 86.5653 364.423 86.928C364.317 87.2907 364.242 87.5573 364.199 87.728C364.114 88.112 364.007 88.496 363.879 88.88C363.751 89.2427 363.591 89.6053 363.399 89.968C363.314 89.968 363.218 89.968 363.111 89.968C363.005 89.9467 362.898 89.936 362.791 89.936ZM370.352 88.976C370.181 88.8053 370.053 88.592 369.968 88.336C369.904 88.08 369.883 87.824 369.904 87.568C369.925 87.312 369.979 87.0987 370.064 86.928C370.064 86.7573 370.085 86.6293 370.128 86.544C370.192 86.4373 370.213 86.3413 370.192 86.256C370.171 86.1707 370.192 86.0213 370.256 85.808C370.32 85.5947 370.384 85.392 370.448 85.2C370.597 84.8587 370.757 84.4533 370.928 83.984C371.099 83.4933 371.259 83.0133 371.408 82.544C371.557 82.0747 371.685 81.6693 371.792 81.328C371.899 80.9867 371.963 80.7733 371.984 80.688C371.984 80.432 372.155 80.2933 372.496 80.272C372.752 80.1867 372.944 80.1867 373.072 80.272C373.2 80.336 373.371 80.5387 373.584 80.88C373.755 81.0507 373.819 81.3067 373.776 81.648C373.733 81.9893 373.595 82.416 373.36 82.928C373.275 83.0987 373.168 83.344 373.04 83.664C372.933 83.984 372.859 84.272 372.816 84.528C372.731 84.6987 372.624 84.944 372.496 85.264C372.389 85.5627 372.293 85.8507 372.208 86.128C372.165 86.2347 372.123 86.3947 372.08 86.608C372.037 86.8 371.984 87.0133 371.92 87.248C371.856 87.4613 371.771 87.6533 371.664 87.824C371.472 88.6987 371.291 89.2107 371.12 89.36C370.971 89.5093 370.715 89.3813 370.352 88.976ZM373.456 75.984C373.349 75.8773 373.253 75.728 373.168 75.536C373.083 75.3227 373.029 75.1307 373.008 74.96C372.987 74.768 373.008 74.672 373.072 74.672C373.243 74.6507 373.445 74.4693 373.68 74.128C373.915 73.7867 374.011 73.488 373.968 73.232C373.968 73.1467 374 73.072 374.064 73.008C374.128 72.9227 374.203 72.8693 374.288 72.848C374.544 72.6773 374.789 72.656 375.024 72.784C375.28 72.8907 375.515 73.1147 375.728 73.456C375.92 73.8613 375.973 74.2027 375.888 74.48C375.803 74.736 375.568 75.0987 375.184 75.568C374.864 75.9947 374.565 76.2293 374.288 76.272C374.032 76.3147 373.755 76.2187 373.456 75.984ZM374.721 88.976C374.55 88.8053 374.422 88.592 374.337 88.336C374.273 88.08 374.251 87.824 374.273 87.568C374.294 87.312 374.347 87.0987 374.433 86.928C374.433 86.7573 374.454 86.6293 374.497 86.544C374.561 86.4373 374.582 86.3413 374.561 86.256C374.539 86.1707 374.561 86.0213 374.625 85.808C374.689 85.5947 374.753 85.392 374.817 85.2C374.966 84.8587 375.126 84.4533 375.297 83.984C375.467 83.4933 375.627 83.0133 375.777 82.544C375.926 82.0747 376.054 81.6693 376.161 81.328C376.267 80.9867 376.331 80.7733 376.353 80.688C376.353 80.432 376.523 80.2933 376.865 80.272C377.121 80.1867 377.313 80.1867 377.441 80.272C377.569 80.336 377.739 80.5387 377.953 80.88C378.123 81.0507 378.187 81.3067 378.145 81.648C378.102 81.9893 377.963 82.416 377.729 82.928C377.643 83.0987 377.537 83.344 377.409 83.664C377.302 83.984 377.227 84.272 377.185 84.528C377.099 84.6987 376.993 84.944 376.865 85.264C376.758 85.5627 376.662 85.8507 376.577 86.128C376.534 86.2347 376.491 86.3947 376.449 86.608C376.406 86.8 376.353 87.0133 376.289 87.248C376.225 87.4613 376.139 87.6533 376.033 87.824C375.841 88.6987 375.659 89.2107 375.489 89.36C375.339 89.5093 375.083 89.3813 374.721 88.976ZM376.193 75.6C376.043 75.4507 375.915 75.2693 375.809 75.056C375.723 74.8213 375.691 74.6613 375.713 74.576C375.755 74.4693 375.83 74.2667 375.937 73.968C376.065 73.648 376.203 73.424 376.353 73.296C376.417 73.2533 376.481 73.1893 376.545 73.104C376.63 72.9973 376.715 72.9333 376.801 72.912C377.057 72.7413 377.291 72.72 377.505 72.848C377.739 72.9547 377.91 73.1787 378.017 73.52C378.209 73.8187 378.273 74.0853 378.209 74.32C378.145 74.5333 377.974 74.8213 377.697 75.184C377.377 75.6107 377.089 75.8453 376.833 75.888C376.577 75.9307 376.363 75.8347 376.193 75.6ZM380.289 75.6C380.139 75.4507 380.011 75.2693 379.905 75.056C379.819 74.8213 379.787 74.6613 379.809 74.576C379.851 74.4693 379.926 74.2667 380.033 73.968C380.161 73.648 380.299 73.424 380.449 73.296C380.513 73.2533 380.577 73.1893 380.641 73.104C380.726 72.9973 380.811 72.9333 380.897 72.912C381.153 72.7413 381.387 72.72 381.601 72.848C381.835 72.9547 382.006 73.1787 382.113 73.52C382.305 73.8187 382.369 74.0853 382.305 74.32C382.241 74.5333 382.07 74.8213 381.793 75.184C381.473 75.6107 381.185 75.8453 380.929 75.888C380.673 75.9307 380.459 75.8347 380.289 75.6Z" fill="#357B04"/>
</g>
<g id="Group 2">
<g id="Vector">
<path d="M49.999 91.688C59.0835 91.688 67.5906 89.3924 74.8842 85.3918V33.2252L63.8843 14.7252H54.8843H45.8843L36.3843 33.2252L36.3843 37.188V59.2252L36.3843 67.2252V89.9086C36.3843 89.9086 45.2748 91.688 49.999 91.688Z" fill="url(#paint0_linear_49_96)"/>
<path d="M27.2422 86.4937C27.2894 86.5168 27.3367 86.5398 27.3841 86.5627V59.5007V59.2252V28.2252V17.0192V5.81322C27.1357 5.93343 26.8886 6.05555 26.6427 6.17958C23.5445 7.74242 20.6481 9.60652 17.9991 11.7295V46.188V80.6464C18.2736 80.8664 18.5507 81.0836 18.8305 81.298C21.4239 83.2854 24.2413 85.0298 27.2422 86.4937Z" fill="url(#paint1_linear_49_96)"/>
<path d="M27.8841 67.2252H36.0742M36.3843 67.2252V89.9086C36.3843 89.9086 45.2748 91.688 49.999 91.688C59.0835 91.688 67.5906 89.3924 74.8842 85.3918V33.2252L63.8843 14.7252H54.8843H45.8843L36.3843 33.2252L36.3843 37.188M36.3843 67.2252L36.3843 59.2252M36.3843 67.2252H36.0742M27.3841 59.2252H36.3843M27.3841 59.2252V59.5007M27.3841 59.2252V28.2252M36.3843 59.2252V37.188M27.3841 59.5007V86.5627C27.3367 86.5398 27.2894 86.5168 27.2422 86.4937C24.2413 85.0298 21.4239 83.2854 18.8305 81.298C18.5507 81.0836 18.2736 80.8664 17.9991 80.6464V46.188V11.7295C20.6481 9.60652 23.5445 7.74242 26.6427 6.17958C26.8886 6.05555 27.1357 5.93343 27.3841 5.81322V17.0192V28.2252M27.3841 59.5007L36.0742 67.2252M36.3843 37.188H27.9991L35.966 28.2252M27.3841 28.2252H35.966M38.8841 28.2252H35.966" stroke="#FFBA00"/>
</g>
<path id="Ellipse 1" d="M98.9 46C98.9 71.0529 78.0802 91.8801 50.5 91.8801C22.8958 91.8801 0.6 71.0104 0.6 45.9801C0.6 20.9354 21.4112 0.6 49 0.6C76.6129 0.6 98.9 20.9777 98.9 46Z" stroke="#357B04" stroke-width="1.2"/>
</g>
<path id="&#208;&#147;&#208;&#181;&#208;&#189;&#208;&#181;&#209;&#128;&#208;&#176;&#209;&#130;&#208;&#190;&#209;&#128;&#208;&#184; &#208;&#162;&#208;&#181;&#208;&#191;&#208;&#187;&#208;&#176;" d="M119 34.44V37.64H106.48V63H102.88V34.44H119ZM128.844 41.16C130.684 41.16 132.257 41.56 133.564 42.36C134.897 43.16 135.911 44.2933 136.604 45.76C137.324 47.2 137.684 48.8933 137.684 50.84V52.96H123.004C123.057 55.3867 123.671 57.24 124.844 58.52C126.044 59.7733 127.711 60.4 129.844 60.4C131.204 60.4 132.404 60.28 133.444 60.04C134.511 59.7733 135.604 59.4 136.724 58.92V62C135.631 62.48 134.551 62.8267 133.484 63.04C132.417 63.28 131.151 63.4 129.684 63.4C127.657 63.4 125.857 62.9867 124.284 62.16C122.737 61.3333 121.524 60.1067 120.644 58.48C119.791 56.8267 119.364 54.8133 119.364 52.44C119.364 50.0933 119.751 48.08 120.524 46.4C121.324 44.72 122.431 43.4267 123.844 42.52C125.284 41.6133 126.951 41.16 128.844 41.16ZM128.804 44.04C127.124 44.04 125.791 44.5867 124.804 45.68C123.844 46.7467 123.271 48.24 123.084 50.16H134.004C134.004 48.9333 133.817 47.8667 133.444 46.96C133.071 46.0533 132.497 45.3467 131.724 44.84C130.977 44.3067 130.004 44.04 128.804 44.04ZM146.662 41.56V50.48H158.302V41.56H161.822V63H158.302V53.44H146.662V63H143.142V41.56H146.662ZM176.891 41.16C178.731 41.16 180.304 41.56 181.611 42.36C182.944 43.16 183.958 44.2933 184.651 45.76C185.371 47.2 185.731 48.8933 185.731 50.84V52.96H171.051C171.104 55.3867 171.718 57.24 172.891 58.52C174.091 59.7733 175.758 60.4 177.891 60.4C179.251 60.4 180.451 60.28 181.491 60.04C182.558 59.7733 183.651 59.4 184.771 58.92V62C183.678 62.48 182.598 62.8267 181.531 63.04C180.464 63.28 179.198 63.4 177.731 63.4C175.704 63.4 173.904 62.9867 172.331 62.16C170.784 61.3333 169.571 60.1067 168.691 58.48C167.838 56.8267 167.411 54.8133 167.411 52.44C167.411 50.0933 167.798 48.08 168.571 46.4C169.371 44.72 170.478 43.4267 171.891 42.52C173.331 41.6133 174.998 41.16 176.891 41.16ZM176.851 44.04C175.171 44.04 173.838 44.5867 172.851 45.68C171.891 46.7467 171.318 48.24 171.131 50.16H182.051C182.051 48.9333 181.864 47.8667 181.491 46.96C181.118 46.0533 180.544 45.3467 179.771 44.84C179.024 44.3067 178.051 44.04 176.851 44.04ZM201.389 41.16C204.029 41.16 206.149 42.08 207.749 43.92C209.376 45.76 210.189 48.5333 210.189 52.24C210.189 54.6667 209.816 56.72 209.069 58.4C208.349 60.0533 207.322 61.3067 205.989 62.16C204.682 62.9867 203.136 63.4 201.349 63.4C200.256 63.4 199.282 63.2533 198.429 62.96C197.576 62.6667 196.842 62.2933 196.229 61.84C195.642 61.36 195.136 60.84 194.709 60.28H194.469C194.522 60.7333 194.576 61.3067 194.629 62C194.682 62.6933 194.709 63.2933 194.709 63.8V72.6H191.189V41.56H194.069L194.549 44.48H194.709C195.136 43.8667 195.642 43.3067 196.229 42.8C196.842 42.2933 197.562 41.8933 198.389 41.6C199.242 41.3067 200.242 41.16 201.389 41.16ZM200.749 44.12C199.309 44.12 198.149 44.4 197.269 44.96C196.389 45.4933 195.749 46.3067 195.349 47.4C194.949 48.4933 194.736 49.88 194.709 51.56V52.24C194.709 54 194.896 55.4933 195.269 56.72C195.642 57.9467 196.269 58.88 197.149 59.52C198.056 60.16 199.282 60.48 200.829 60.48C202.136 60.48 203.202 60.12 204.029 59.4C204.882 58.68 205.509 57.7067 205.909 56.48C206.336 55.2267 206.549 53.8 206.549 52.2C206.549 49.7467 206.069 47.7867 205.109 46.32C204.176 44.8533 202.722 44.12 200.749 44.12ZM223.918 41.2C226.532 41.2 228.465 41.7733 229.718 42.92C230.972 44.0667 231.598 45.8933 231.598 48.4V63H229.038L228.358 59.96H228.198C227.585 60.7333 226.945 61.3867 226.278 61.92C225.638 62.4267 224.892 62.8 224.038 63.04C223.212 63.28 222.198 63.4 220.998 63.4C219.718 63.4 218.558 63.1733 217.518 62.72C216.505 62.2667 215.705 61.5733 215.118 60.64C214.532 59.68 214.238 58.48 214.238 57.04C214.238 54.9067 215.078 53.2667 216.758 52.12C218.438 50.9467 221.025 50.3067 224.518 50.2L228.158 50.08V48.8C228.158 47.0133 227.772 45.7733 226.998 45.08C226.225 44.3867 225.132 44.04 223.718 44.04C222.598 44.04 221.532 44.2133 220.518 44.56C219.505 44.88 218.558 45.2533 217.678 45.68L216.598 43.04C217.532 42.5333 218.638 42.1067 219.918 41.76C221.198 41.3867 222.532 41.2 223.918 41.2ZM224.958 52.64C222.292 52.7467 220.438 53.1733 219.398 53.92C218.385 54.6667 217.878 55.72 217.878 57.08C217.878 58.28 218.238 59.16 218.958 59.72C219.705 60.28 220.652 60.56 221.798 60.56C223.612 60.56 225.118 60.0667 226.318 59.08C227.518 58.0667 228.118 56.52 228.118 54.44V52.52L224.958 52.64ZM253.02 44.52H246.02V63H242.54V44.52H235.62V41.56H253.02V44.52ZM275.493 52.24C275.493 54.0267 275.253 55.6133 274.773 57C274.32 58.36 273.653 59.52 272.773 60.48C271.92 61.44 270.866 62.1733 269.613 62.68C268.386 63.16 267.013 63.4 265.493 63.4C264.08 63.4 262.773 63.16 261.573 62.68C260.373 62.1733 259.333 61.44 258.453 60.48C257.573 59.52 256.88 58.36 256.373 57C255.893 55.6133 255.653 54.0267 255.653 52.24C255.653 49.8667 256.053 47.8667 256.853 46.24C257.653 44.5867 258.8 43.3333 260.293 42.48C261.786 41.6 263.56 41.16 265.613 41.16C267.56 41.16 269.266 41.6 270.733 42.48C272.226 43.3333 273.386 44.5867 274.213 46.24C275.066 47.8667 275.493 49.8667 275.493 52.24ZM259.293 52.24C259.293 53.92 259.506 55.3867 259.933 56.64C260.386 57.8667 261.08 58.8133 262.013 59.48C262.946 60.1467 264.133 60.48 265.573 60.48C267.013 60.48 268.2 60.1467 269.133 59.48C270.066 58.8133 270.746 57.8667 271.173 56.64C271.626 55.3867 271.853 53.92 271.853 52.24C271.853 50.5333 271.626 49.08 271.173 47.88C270.72 46.68 270.026 45.76 269.093 45.12C268.186 44.4533 267 44.12 265.533 44.12C263.346 44.12 261.76 44.84 260.773 46.28C259.786 47.72 259.293 49.7067 259.293 52.24ZM291.272 41.16C293.912 41.16 296.032 42.08 297.632 43.92C299.259 45.76 300.072 48.5333 300.072 52.24C300.072 54.6667 299.699 56.72 298.952 58.4C298.232 60.0533 297.205 61.3067 295.872 62.16C294.565 62.9867 293.019 63.4 291.232 63.4C290.139 63.4 289.165 63.2533 288.312 62.96C287.459 62.6667 286.725 62.2933 286.112 61.84C285.525 61.36 285.019 60.84 284.592 60.28H284.352C284.405 60.7333 284.459 61.3067 284.512 62C284.565 62.6933 284.592 63.2933 284.592 63.8V72.6H281.072V41.56H283.952L284.432 44.48H284.592C285.019 43.8667 285.525 43.3067 286.112 42.8C286.725 42.2933 287.445 41.8933 288.272 41.6C289.125 41.3067 290.125 41.16 291.272 41.16ZM290.632 44.12C289.192 44.12 288.032 44.4 287.152 44.96C286.272 45.4933 285.632 46.3067 285.232 47.4C284.832 48.4933 284.619 49.88 284.592 51.56V52.24C284.592 54 284.779 55.4933 285.152 56.72C285.525 57.9467 286.152 58.88 287.032 59.52C287.939 60.16 289.165 60.48 290.712 60.48C292.019 60.48 293.085 60.12 293.912 59.4C294.765 58.68 295.392 57.7067 295.792 56.48C296.219 55.2267 296.432 53.8 296.432 52.2C296.432 49.7467 295.952 47.7867 294.992 46.32C294.059 44.8533 292.605 44.12 290.632 44.12ZM309.001 54.64C309.001 54.88 308.988 55.2267 308.961 55.68C308.961 56.1067 308.948 56.5733 308.921 57.08C308.895 57.56 308.868 58.0267 308.841 58.48C308.815 58.9067 308.788 59.2533 308.761 59.52L320.241 41.56H324.561V63H321.281V50.36C321.281 49.9333 321.281 49.3733 321.281 48.68C321.308 47.9867 321.335 47.3067 321.361 46.64C321.388 45.9467 321.415 45.4267 321.441 45.08L310.041 63H305.681V41.56H309.001V54.64ZM350.123 63H346.523V37.6H337.603V34.44H359.003V37.6H350.123V63ZM368.297 41.16C370.137 41.16 371.711 41.56 373.017 42.36C374.351 43.16 375.364 44.2933 376.057 45.76C376.777 47.2 377.137 48.8933 377.137 50.84V52.96H362.457C362.511 55.3867 363.124 57.24 364.297 58.52C365.497 59.7733 367.164 60.4 369.297 60.4C370.657 60.4 371.857 60.28 372.897 60.04C373.964 59.7733 375.057 59.4 376.177 58.92V62C375.084 62.48 374.004 62.8267 372.937 63.04C371.871 63.28 370.604 63.4 369.137 63.4C367.111 63.4 365.311 62.9867 363.737 62.16C362.191 61.3333 360.977 60.1067 360.097 58.48C359.244 56.8267 358.817 54.8133 358.817 52.44C358.817 50.0933 359.204 48.08 359.977 46.4C360.777 44.72 361.884 43.4267 363.297 42.52C364.737 41.6133 366.404 41.16 368.297 41.16ZM368.257 44.04C366.577 44.04 365.244 44.5867 364.257 45.68C363.297 46.7467 362.724 48.24 362.537 50.16H373.457C373.457 48.9333 373.271 47.8667 372.897 46.96C372.524 46.0533 371.951 45.3467 371.177 44.84C370.431 44.3067 369.457 44.04 368.257 44.04ZM400.715 41.56V63H397.195V44.56H386.115V63H382.595V41.56H400.715ZM423.876 63H420.316V44.48H413.996C413.73 47.8667 413.396 50.76 412.996 53.16C412.596 55.5333 412.09 57.4667 411.476 58.96C410.863 60.4533 410.13 61.5467 409.276 62.24C408.423 62.9333 407.423 63.28 406.276 63.28C405.93 63.28 405.583 63.2533 405.236 63.2C404.916 63.1733 404.65 63.1067 404.436 63V60.36C404.596 60.4133 404.77 60.4533 404.956 60.48C405.143 60.5067 405.33 60.52 405.516 60.52C406.103 60.52 406.636 60.28 407.116 59.8C407.596 59.32 408.023 58.5867 408.396 57.6C408.796 56.6133 409.156 55.3733 409.476 53.88C409.796 52.36 410.076 50.5733 410.316 48.52C410.556 46.4667 410.77 44.1467 410.956 41.56H423.876V63ZM438.801 41.2C441.415 41.2 443.348 41.7733 444.601 42.92C445.855 44.0667 446.481 45.8933 446.481 48.4V63H443.921L443.241 59.96H443.081C442.468 60.7333 441.828 61.3867 441.161 61.92C440.521 62.4267 439.775 62.8 438.921 63.04C438.095 63.28 437.081 63.4 435.881 63.4C434.601 63.4 433.441 63.1733 432.401 62.72C431.388 62.2667 430.588 61.5733 430.001 60.64C429.415 59.68 429.121 58.48 429.121 57.04C429.121 54.9067 429.961 53.2667 431.641 52.12C433.321 50.9467 435.908 50.3067 439.401 50.2L443.041 50.08V48.8C443.041 47.0133 442.655 45.7733 441.881 45.08C441.108 44.3867 440.015 44.04 438.601 44.04C437.481 44.04 436.415 44.2133 435.401 44.56C434.388 44.88 433.441 45.2533 432.561 45.68L431.481 43.04C432.415 42.5333 433.521 42.1067 434.801 41.76C436.081 41.3867 437.415 41.2 438.801 41.2ZM439.841 52.64C437.175 52.7467 435.321 53.1733 434.281 53.92C433.268 54.6667 432.761 55.72 432.761 57.08C432.761 58.28 433.121 59.16 433.841 59.72C434.588 60.28 435.535 60.56 436.681 60.56C438.495 60.56 440.001 60.0667 441.201 59.08C442.401 58.0667 443.001 56.52 443.001 54.44V52.52L439.841 52.64Z" fill="#FFBA00"/>
</g>
<defs>
<linearGradient id="paint0_linear_49_96" x1="49.999" y1="0.687965" x2="49.999" y2="139.688" gradientUnits="userSpaceOnUse">
<stop stop-color="#FFBA00"/>
<stop offset="1" stop-color="#FFC700" stop-opacity="1"/>
</linearGradient>
<linearGradient id="paint1_linear_49_96" x1="49.999" y1="0.687965" x2="49.999" y2="139.688" gradientUnits="userSpaceOnUse">
<stop stop-color="#FFBA00"/>
<stop offset="1" stop-color="#FFC700" stop-opacity="1"/>
</linearGradient>
</defs>
</svg>
