<svg width="70" height="80" viewBox="0 0 100 110" fill="none" xmlns="http://www.w3.org/2000/svg">
<path d="M41.9331 65.2431C41.9331 62.8807 40.1301 57.836 38.4775 53.4575C38.8868 57.1506 38.5674 59.4445 37.1654 62.8807C36.0337 65.6546 35.5459 67.8566 32.9152 69.253C30.3332 70.6236 28.1711 70.3013 25.4449 69.253C22.2263 68.0153 21.1862 65.7805 19.2867 62.8807C17.5927 60.2946 16.6013 58.6793 16.1082 55.6194C15.4632 51.6171 17.8961 45.3942 17.8961 45.3942C17.8961 45.3942 14.9069 50.1117 13.7244 53.4575C12.6103 56.6095 12.1618 58.4959 11.9365 61.8347C11.6062 66.7287 12.029 69.6681 13.7244 74.2653C13.9057 74.658 14.0965 75.0327 14.2977 75.3903C15.706 77.8935 17.6253 79.5605 20.4 80.7246C20.6477 80.8285 20.8911 80.9288 21.1305 81.0252C24.723 82.4716 27.4579 83.0468 31.326 81.9276C31.8168 81.7855 32.2816 81.6342 32.7234 81.4713C35.816 80.331 37.7817 78.6232 39.6694 75.5598C39.8031 75.3428 39.9289 75.1287 40.0473 74.9168C41.5867 72.1625 41.8742 69.7947 41.9236 66.7176C41.9312 66.2443 41.9331 65.7541 41.9331 65.2431Z" fill="url(#paint0_linear_18_17)"/>
<path d="M39.6694 11.5543C36.0719 14.8897 34.5677 17.5409 32.9152 22.1805C31.4047 26.4215 30.9877 29.1149 31.3259 33.6086C31.6073 37.3476 32.8293 40.4718 33.7503 42.5823C33.8819 42.8838 34.0074 43.1646 34.123 43.4236L34.1469 43.4771L34.1822 43.5562C34.225 43.6519 34.2662 43.7445 34.3057 43.8338C35.1932 45.8387 37.1038 49.8182 38.4775 53.4575C40.1301 57.836 41.9331 62.8807 41.9331 65.2431C41.9331 65.7541 41.9312 66.2443 41.9236 66.7176C41.8742 69.7947 41.5867 72.1625 40.0473 74.9168C39.9289 75.1287 39.8031 75.3428 39.6694 75.5598C37.7817 78.6232 35.816 80.331 32.7234 81.4713C32.2816 81.6342 31.8168 81.7855 31.326 81.9276C27.4579 83.0468 24.723 82.4716 21.1305 81.0252C20.8911 80.9288 20.6477 80.8285 20.4 80.7246C17.6253 79.5605 15.706 77.8935 14.2977 75.3903C14.0965 75.0327 13.9057 74.658 13.7244 74.2653C15.0457 79.2881 16.9627 82.8702 20.4 86.7394C23.2649 89.9642 25.0726 91.7137 28.7435 93.9572C32.2555 96.1037 34.4346 97.2442 38.4775 97.9671C43.7327 98.9068 52.0731 96.5636 52.0731 96.5636C52.0731 96.5636 49.362 92.1993 48.3363 88.3455C48.1898 87.795 48.0777 87.2549 48.0128 86.7394C47.495 82.6265 48.1919 80.0481 49.5256 76.3213C49.6145 76.0728 49.7063 75.8192 49.8007 75.5598C50.505 73.6241 51.3911 72.3172 52.302 70.9738C53.0233 69.9101 53.7601 68.8236 54.4344 67.3838C54.4793 67.2878 54.524 67.1903 54.5684 67.0911C54.7287 66.7325 54.8818 66.3974 55.028 66.0782L55.0902 65.9424C55.8557 64.272 56.4293 63.0204 56.8666 61.0741C56.8957 60.9444 56.9242 60.8115 56.9522 60.6753C57.4831 58.0876 55.8767 53.7425 55.0404 51.7318C54.7616 51.0615 54.5684 50.6506 54.5684 50.6506C54.5684 50.6506 61.6437 56.7807 63.7064 60.6753C65.8691 64.7587 66.7964 67.3246 67.4808 71.9029C68.0595 75.774 68.1631 78.0737 67.4808 81.9276C66.8116 85.7077 63.4461 89.8722 61.8052 91.7182C61.2582 92.3335 60.9028 92.6912 60.9028 92.6912C60.9028 92.6912 61.4036 92.2609 62.1819 91.5172C64.1278 89.658 67.8088 85.8404 69.7391 81.8919C70.1251 81.1022 70.4412 80.3072 70.6593 79.5217C71.3639 76.9838 71.6931 75.3596 71.8124 72.9759C71.8295 72.6354 71.8422 72.2793 71.8512 71.9029C71.9253 68.7936 71.8904 66.7712 71.0639 64.0801C70.9459 63.6957 70.8116 63.2976 70.6593 62.8807C69.5966 59.9733 68.1308 58.2979 66.3908 56.4337C66.2748 56.3094 66.1575 56.1843 66.0391 56.0579C65.35 55.3223 64.6208 54.544 63.8591 53.64C63.8084 53.5797 63.7574 53.5189 63.7064 53.4575C62.3597 51.8379 61.1193 50.6261 59.9099 49.4818C59.7375 49.3187 59.5658 49.157 59.3944 48.9957L59.3932 48.9946C57.9067 47.5949 56.4509 46.2242 54.8834 44.2392C54.7789 44.1069 54.6739 43.9718 54.5684 43.8338C54.0325 43.1331 53.4734 42.4441 52.902 41.7426L52.7876 41.6021C51.3049 39.782 49.7454 37.8676 48.3003 35.4413C48.2039 35.2795 48.1081 35.1155 48.0128 34.9491C47.9533 34.8452 47.8959 34.745 47.8404 34.648L47.8371 34.6423C46.7005 32.6586 46.3503 32.0473 45.2611 29.3624C45.1885 29.1834 45.1126 28.9952 45.033 28.7968C43.8086 25.7454 43.6725 21.6921 43.8343 19.7993C43.8575 19.5289 43.8867 19.3026 43.9196 19.1296C44.4705 16.2394 46.6222 12.7573 46.6222 12.7573L52.073 5.38704C52.073 5.38704 44.6665 7.5671 40.464 10.8775C40.1839 11.0982 39.918 11.3239 39.6694 11.5543Z" fill="url(#paint1_linear_18_17)"/>
<path d="M46.6222 12.7573C46.6222 12.7573 44.4705 16.2394 43.9196 19.1296C43.8867 19.3026 43.8575 19.5289 43.8343 19.7993C43.6725 21.6921 43.8086 25.7454 45.033 28.7968C45.1126 28.9952 45.1885 29.1834 45.2611 29.3624C46.3503 32.0473 46.7005 32.6586 47.8371 34.6423L47.8404 34.648C47.8959 34.745 47.9533 34.8452 48.0128 34.9491C48.1081 35.1155 48.2039 35.2795 48.3003 35.4413C49.7454 37.8676 51.3049 39.782 52.7876 41.6021L52.902 41.7426C53.4734 42.4441 54.0325 43.1331 54.5684 43.8338C54.6739 43.9718 54.7789 44.1069 54.8834 44.2392C56.4509 46.2242 57.9067 47.5949 59.3932 48.9946L59.3944 48.9957C59.5658 49.157 59.7375 49.3187 59.9099 49.4818C61.1193 50.6261 62.3597 51.8379 63.7064 53.4575C63.7574 53.5189 63.8084 53.5797 63.8591 53.64C64.6208 54.544 65.35 55.3223 66.0391 56.0579C66.1575 56.1843 66.2748 56.3094 66.3908 56.4337C68.1308 58.2979 69.5966 59.9733 70.6593 62.8807C70.8116 63.2976 70.9459 63.6957 71.0639 64.0801C71.8904 66.7712 71.9253 68.7936 71.8512 71.9029C71.8422 72.2793 71.8295 72.6354 71.8124 72.9759C71.6931 75.3596 71.3639 76.9838 70.6593 79.5217C70.4412 80.3072 70.1251 81.1022 69.7391 81.8919C67.8088 85.8404 64.1278 89.658 62.1819 91.5172C61.4036 92.2609 60.9028 92.6912 60.9028 92.6912C60.9028 92.6912 65.1935 90.6556 67.4808 88.7009C70.8359 85.8336 72.1554 83.4936 74.1149 79.5217C75.9704 75.7608 76.7492 73.4182 77.2934 69.253C77.9857 63.9539 77.9294 60.6359 76.1015 55.6194C74.1449 50.2502 67.4808 43.8338 67.4808 43.8338L57.8254 32.7631C57.8254 32.7631 52.1342 24.9848 51.0711 19.1296C50.1101 13.8364 52.073 5.38704 52.073 5.38704L46.6222 12.7573Z" fill="url(#paint2_linear_18_17)"/>
<path d="M50.475 84.6909C50.2276 81.7542 52.1134 77.6541 52.6602 75.8497C53.207 74.0452 56.049 70.9042 57.4279 67.2284C58.5162 64.3272 59.6131 59.6292 59.6131 59.6292C59.6131 59.6292 62.1479 64.755 63.1888 68.2504C64.3233 72.0599 65.0363 74.2978 64.9767 78.2751C64.9217 81.9447 64.8854 84.2518 63.1888 87.4978C61.4484 90.8277 56.4346 94.3146 56.4346 94.3146C56.4346 94.3146 59.7987 87.8244 60.6063 83.2875C61.3745 78.9719 60.6063 72.0598 60.6063 72.0598C60.6063 72.0598 60.3964 77.5056 59.6131 80.8815C58.9978 83.5334 58.4527 84.9783 57.4279 87.4978C56.3079 90.2512 54.0508 94.3146 54.0508 94.3146C54.0508 94.3146 53.1443 92.8805 52.6602 91.9087C51.3484 89.2754 50.7224 87.6277 50.475 84.6909Z" fill="url(#paint3_linear_18_17)"/>
<defs>
<linearGradient id="paint0_linear_18_17" x1="41.6335" y1="71.4389" x2="-0.10664" y2="64.1522" gradientUnits="userSpaceOnUse">
<stop stop-color="#FF5600"/>
<stop offset="1" stop-color="#FFB564"/>
</linearGradient>
<linearGradient id="paint1_linear_18_17" x1="44.8119" y1="27.1298" x2="45.2166" y2="100.109" gradientUnits="userSpaceOnUse">
<stop stop-color="#FE8B00"/>
<stop offset="1" stop-color="#FFB605"/>
</linearGradient>
<linearGradient id="paint2_linear_18_17" x1="108.977" y1="95.0972" x2="84.5539" y2="33.9001" gradientUnits="userSpaceOnUse">
<stop offset="0.589091" stop-color="#DE1714"/>
<stop offset="1" stop-color="#F65C0F"/>
</linearGradient>
<linearGradient id="paint3_linear_18_17" x1="57.7259" y1="59.6292" x2="57.7259" y2="94.3146" gradientUnits="userSpaceOnUse">
<stop stop-color="#70EE18"/>
<stop offset="1" stop-color="#26B100"/>
</linearGradient>
</defs>
</svg>
