<svg aria-hidden="true" style="position: absolute; width: 0; height: 0; overflow: hidden;" version="1.1" xmlns="http://www.w3.org/2000/svg" xmlns:xlink="http://www.w3.org/1999/xlink">
<defs>
<symbol id="instagram" viewBox="0 0 32 32">
<path d="M25.6 32H6.4C2.88 32 0 29.12 0 25.6V6.4C0 2.88 2.88 0 6.4 0H25.6C29.12 0 32 2.88 32 6.4V25.6C32 29.12 29.12 32 25.6 32Z" fill="url(#paint0_radial_29_5)"/>
<path d="M20.2667 27.2H11.7333C7.89334 27.2 4.8 24.1067 4.8 20.2667V11.7333C4.8 7.89333 7.89334 4.8 11.7333 4.8H20.2667C24.1067 4.8 27.2 7.89333 27.2 11.7333V20.2667C27.2 24.1067 24.1067 27.2 20.2667 27.2ZM11.7333 5.86667C8.48 5.86667 5.86667 8.48 5.86667 11.7333V20.2667C5.86667 23.52 8.48 26.1333 11.7333 26.1333H20.2667C23.52 26.1333 26.1333 23.52 26.1333 20.2667V11.7333C26.1333 8.48 23.52 5.86667 20.2667 5.86667H11.7333Z" fill="rgba(255, 221, 85, 1)"/>
<path d="M16 21.8667C12.7467 21.8667 10.1333 19.2533 10.1333 16C10.1333 12.7467 12.7467 10.1333 16 10.1333C19.2533 10.1333 21.8667 12.7467 21.8667 16C21.8667 19.2533 19.2533 21.8667 16 21.8667ZM16 11.2C13.3333 11.2 11.2 13.3333 11.2 16C11.2 18.6667 13.3333 20.8 16 20.8C18.6667 20.8 20.8 18.6667 20.8 16C20.8 13.3333 18.6667 11.2 16 11.2Z" fill="rgba(255, 221, 85, 1)"/>
<path d="M22.4 11.2C21.4933 11.2 20.8 10.5067 20.8 9.6C20.8 8.69333 21.4933 8 22.4 8C23.3067 8 24 8.69333 24 9.6C24 10.5067 23.3067 11.2 22.4 11.2ZM22.4 9.06667C22.08 9.06667 21.8667 9.28 21.8667 9.6C21.8667 9.92 22.08 10.1333 22.4 10.1333C22.72 10.1333 22.9333 9.92 22.9333 9.6C22.9333 9.28 22.72 9.06667 22.4 9.06667Z" fill="rgba(255, 221, 85, 1)"/>
</symbol>
<symbol id="tiktok" viewBox="0 0 33 32">
<path fill="#3f3f40" style="fill: var(--color3, #3f3f40)" d="M30.988 8.299c0-1.032-0.475-3.778-2.705-5.265-2.498-1.652-8.052-1.321-12.119-1.321-5.141 0-9.641-1.177-12.222 1.404-2.746 2.766-2.787 3.881-2.787 11.148 0 4.253-0.062 8.981 2.643 12.47 2.333 3.014 5.12 3.861 8.712 3.943 2.126 0.041 6.132 0.413 8.237 0.103 1.961-0.289 6.4-0.083 8.568-3.055 1.961-2.684 0.578-6.978 0.867-11.314 0.186-2.705 0.805-5.409 0.805-8.114z"></path>
<path fill="#9afce6" style="fill: var(--color4, #9afce6)" d="M24.465 9.435c-1.714-0.516-3.179-1.61-4.17-3.097-0.372-0.578-0.661-1.197-0.888-1.858-0.145-0.372-0.351-0.372-0.681-0.392-0.805-0.021-1.672-0.124-2.477-0.041-0.723 0.062-0.475 1.197-0.475 1.714 0 2.065 0.145 4.108 0.145 6.173 0 1.961-0.062 3.923-0.103 5.884-0.021 1.445 0.041 2.973-1.135 4.026-2.415 2.147-6.648-0.372-5.45-3.53 0.268-0.723 0.846-1.301 1.569-1.569 0.413-0.165 0.867-0.268 1.301-0.351 0.289-0.062 0.764-0.021 0.991-0.206 0.289-0.248 0.165-0.867 0.165-1.177 0-0.495 0-0.991 0-1.466 0-0.268 0.083-0.661-0.041-0.929-0.165-0.372-0.599-0.289-0.929-0.248-2.684 0.289-5.017 2.003-6.132 4.459-1.321 3.014-0.64 7.123 2.436 8.774 3.345 1.775 7.597 0.351 9.538-2.808 0.991-1.631 1.032-3.324 0.991-5.161-0.021-1.053 0.041-2.085 0.103-3.138 0.041-0.991 0.041-1.961 0.021-2.932 1.528 0.888 3.097 1.672 5.079 1.61 0.413 0 0.31-0.392 0.33-0.743 0.021-0.516 0.041-1.032 0.062-1.528 0.041-0.991 0.206-1.321-0.248-1.466z"></path>
<path fill="#ff0f50" style="fill: var(--color5, #ff0f50)" d="M26.529 11.293c-1.714-0.516-3.179-1.61-4.17-3.097-0.372-0.578-0.661-1.197-0.888-1.858-0.145-0.372-0.351-0.372-0.681-0.392-0.805-0.021-1.672-0.124-2.477-0.041-0.723 0.062-0.475 1.197-0.475 1.714 0 2.065 0.145 4.108 0.145 6.173 0 1.961-0.062 3.923-0.103 5.884-0.021 1.445 0.041 2.973-1.135 4.026-2.415 2.147-6.648-0.372-5.45-3.53 0.268-0.723 0.846-1.301 1.569-1.569 0.413-0.165 0.867-0.268 1.301-0.351 0.289-0.062 0.764-0.021 0.991-0.206 0.289-0.248 0.165-0.867 0.165-1.177 0-0.495 0-0.991 0-1.466 0-0.268 0.083-0.661-0.041-0.908-0.165-0.372-0.599-0.289-0.929-0.248-2.684 0.289-5.017 2.003-6.132 4.459-1.321 2.994-0.661 7.123 2.436 8.774 3.345 1.775 7.597 0.351 9.538-2.808 0.991-1.631 1.032-3.324 0.991-5.161-0.021-1.053 0.041-2.085 0.103-3.138 0.041-0.991 0.041-1.961 0.021-2.932 1.528 0.888 3.097 1.672 5.079 1.61 0.413 0 0.31-0.392 0.33-0.743 0.021-0.516 0.041-1.032 0.062-1.528 0.041-1.012 0.206-1.342-0.248-1.486z"></path>
<path fill="#fff" style="fill: var(--color2, #fff)" d="M25.394 13.832c-0.805-0.041-1.61-0.145-2.395-0.33-1.425-0.372-2.952-1.363-2.994-1.404v7.948c-0.021 0.846-0.186 1.672-0.475 2.477-0.31 0.785-0.743 1.528-1.301 2.168-0.661 0.764-1.486 1.363-2.395 1.796-0.929 0.434-1.941 0.661-2.952 0.64-1.218 0.021-3.468-0.392-4.686-2.085-1.404-1.941-1.383-3.221-1.342-4.253 0.083-1.837 0.702-2.973 0.867-3.262 0.434-0.785 1.012-1.466 1.672-2.044 0.599-0.495 1.259-0.888 1.982-1.177 0.785-0.33 1.61-0.495 2.457-0.516v3.055c0 0-1.693 0.145-2.684 0.764-0.929 0.578-1.425 1.507-1.466 2.684-0.103 2.188 2.147 3.881 4.026 3.716 2.003-0.186 3.53-1.507 3.53-3.943v-14.575h2.828c0.124 0.702 1.59 4.294 5.347 5.306l-0.021 3.035z"></path>
<path fill="#000" style="fill: var(--color1, #000)" d="M25.538 10.261c-1.899-0.557-3.489-1.837-4.459-3.551-0.206-0.351-0.351-0.743-0.454-1.135-0.103-0.372-0.165-0.557-0.578-0.619-0.413-0.041-0.826-0.083-1.239-0.083-0.537-0.041-1.218-0.186-1.734-0.062-0.31 0.083-0.537 0.351-0.557 0.681-0.062 0.578 0.021 1.218 0.021 1.817 0.021 2.126 0.021 4.232 0.041 6.359 0.021 1.528 0.021 3.055 0.021 4.583 0 0.929 0.124 1.961-0.103 2.87-0.495 1.92-2.705 2.746-4.439 1.879-0.289-0.165-0.578-0.351-0.826-0.578-0.268-0.227-0.578-0.372-0.764-0.681-0.372-0.661-0.392-1.507-0.186-2.209 0.268-0.908 0.95-1.486 1.837-1.775 0.495-0.145 1.032-0.248 1.548-0.31 0.392-0.041 0.681-0.145 0.743-0.599 0.124-0.826 0.041-1.714 0.062-2.539 0-0.33 0.083-0.723-0.186-0.991-0.537-0.537-2.044-0.062-2.663 0.145-1.796 0.537-3.324 1.714-4.335 3.303-0.826 1.383-0.888 3.076-0.888 4.625 0 0.991-0.062 2.188 0.475 3.035 0.31 0.495 0.661 0.95 1.053 1.383 1.115 1.239 3.076 2.147 4.769 1.858 1.92-0.31 3.861-0.434 5.326-1.879 1.404-1.342 2.292-3.138 2.477-5.079 0.103-1.053 0-2.126-0.062-3.179s0.165-2.023 0.186-3.055c0-0.413 0-0.826 0.021-1.239 1.404 0.723 2.952 1.218 4.542 1.177 0.083 0 0.186 0 0.268 0 0.516-0.124 0.372-0.785 0.413-1.218 0.041-0.578 0.062-1.156 0.062-1.734 0.041-0.413 0.145-1.053-0.392-1.197zM24.052 13.089c-0.95-0.145-1.858-0.454-2.705-0.908-0.516-0.268-1.734-1.239-1.941-0.145-0.124 0.599 0 1.342 0 1.941 0 1.528 0 3.055 0 4.583 0.041 0.785 0 1.59-0.083 2.374-0.289 1.837-1.301 3.489-2.828 4.583-1.466 1.012-3.53 1.218-5.244 0.826-1.569-0.372-2.643-1.466-3.324-2.89-1.941-4.005 1.156-8.795 5.45-9.166v0.805c0 0.33 0.124 0.95 0 1.239s-1.321 0.372-1.693 0.516c-0.805 0.268-1.486 0.826-1.941 1.528-1.714 2.849 0.908 6.4 4.088 5.987 1.321-0.165 2.663-0.888 3.427-2.023 0.681-1.032 0.619-2.312 0.619-3.51 0-1.652 0-3.303-0.021-4.955-0.021-1.507-0.145-3.014-0.021-4.521 0.083-1.074 0.021-2.188 0.021-3.262 0.516-0.041 1.032-0.041 1.548 0 0.33 0.041 0.289 0.227 0.454 0.578 0.248 0.516 0.516 1.012 0.846 1.486 0.661 0.95 1.507 1.775 2.477 2.395 0.268 0.165 0.537 0.31 0.805 0.434 0.248 0.103 0.681 0.186 0.785 0.392s0.041 0.619 0.062 0.846c0.041 0.31 0.083 0.619 0.124 0.95-0.31 0-0.599-0.041-0.908-0.083z"></path>
<path fill="#000" style="fill: var(--color1, #000)" d="M32.268 14.906c-0.021-2.787-0.041-5.574-0.062-8.361 0-1.115-0.083-2.147-0.599-3.138-0.475-0.888-1.156-1.652-1.982-2.209-1.879-1.28-4.212-0.991-6.359-0.95-1.156 0.021-2.312 0.021-3.468 0.021s-2.292 0.145-3.448 0.165c-2.292 0.062-4.563-0.206-6.854-0.227-1.383-0.021-2.766 0-4.15 0.103-1.941 0.145-3.634 1.363-4.377 3.159-0.764 1.817-0.475 4.005-0.413 5.925 0.083 2.333 0.103 4.666 0.062 6.999 0 2.333 0 4.666 0.062 6.999 0.041 1.135 0.062 2.271 0.083 3.406 0 0.785 0.165 1.548 0.475 2.25 0.95 1.961 3.035 2.766 5.099 2.766 1.899 0 3.819-0.103 5.719-0.145 2.932-0.062 5.863 0.041 8.795 0.103 1.466 0.021 2.911 0 4.356-0.041 1.404-0.041 2.849 0.021 4.15-0.537 2.23-0.929 2.828-3.179 2.828-5.388-0.021-2.436 0.021-4.852 0.062-7.288 0-1.197 0.021-2.395 0.021-3.613zM31.174 9.6c-0.083 1.879-0.103 3.757-0.103 5.636l-0.021 3.51c0 1.218 0 2.436-0.021 3.654-0.021 2.23 0.33 5.079-1.218 6.895-1.156 1.363-2.828 1.383-4.459 1.404-1.177 0-2.354 0-3.53 0.062-1.775 0.083-3.551 0.083-5.306-0.021-2.271-0.124-4.542-0.083-6.813-0.041-1.941 0.041-4.439 0.434-6.132-0.723-1.837-1.239-1.548-3.592-1.672-5.533-0.248-3.345-0.289-6.689-0.248-10.054 0-1.714 0.062-3.386 0.145-5.079 0.062-1.218 0.083-2.415 0.145-3.634 0.041-1.115 0.33-2.209 1.115-3.055 1.135-1.239 2.725-1.177 4.274-1.135 1.693 0.041 3.365 0.145 5.058 0.103 3.262-0.062 6.503-0.186 9.765-0.145 1.156 0.021 2.312 0.021 3.468 0.062 1.197 0.041 2.292 0.124 3.303 0.846 0.97 0.681 1.672 1.672 1.982 2.808 0.206 0.805 0.186 1.693 0.206 2.539 0.041 0.64 0.083 1.28 0.062 1.899z"></path>
</symbol>
<symbol id="facebook" viewBox="0 0 32 32">
<path fill="#f1f2f2" style="fill: var(--color6, #f1f2f2)" d="M23.333 15.333l-1.333 4.667h-4v11.333h-5.333v-11.333h-4v-4.667h4v-8c-0-0.012-0-0.027-0-0.042 0-1.082 0.877-1.959 1.959-1.959 0.015 0 0.029 0 0.044 0l-0.002-0h8v4.667h-4.667v5.333z"></path>
<path fill="#49aaee" style="fill: var(--color7, #49aaee)" d="M31.333 6v20c0 2.946-2.388 5.333-5.333 5.333v0h-8v-11.333h4l1.333-4.667h-5.333v-5.333h4.667v-4.667h-8c-0.012-0-0.027-0-0.042-0-1.082 0-1.959 0.877-1.959 1.959 0 0.015 0 0.029 0 0.044l-0-0.002v8h-4v4.667h4v11.333h-6.667c-2.946 0-5.333-2.388-5.333-5.333v0-20c0-2.946 2.388-5.333 5.333-5.333v0h20c2.946 0 5.333 2.388 5.333 5.333v0z"></path>
</symbol>
<symbol id="youtube" viewBox="0 0 32 32">
<path fill="#dd2925" style="fill: var(--color1, #dd2925)" d="M5.12 1.118h21.759c2.21 0 4.002 1.792 4.002 4.002v21.759c0 2.21-1.792 4.002-4.002 4.002h-21.759c-2.21 0-4.002-1.792-4.002-4.002v-21.759c0-2.21 1.792-4.002 4.002-4.002z"></path>
<path fill="#fefefe" style="fill: var(--color2, #fefefe)" d="M24.809 12.945s-0.093-3.169-3.513-3.34c0 0-5.428-0.318-10.782 0.026 0 0-3.134 0.063-3.33 3.092 0 0-0.257 3.44-0.041 6.342 0 0 0.068 2.932 3.267 3.177 0 0 7.205 0.329 11.612-0.041 0 0 2.351-0.1 2.736-2.769-0.003 0 0.39-2.194 0.050-6.487zM16.57 17.583l-2.744 1.583v-6.332l5.487 3.166z"></path>
</symbol>
<symbol id="arrow" viewBox="0 0 32 32">
    <path d="M12.13,21.59,17.71,16l-5.58-5.59a1,1,0,0,1,0-1.41h0a1,1,0,0,1,1.41,0l6.36,6.36a.91.91,0,0,1,0,1.28L13.54,23a1,1,0,0,1-1.41,0h0A1,1,0,0,1,12.13,21.59Z" />
</symbol>
<symbol id="logo_gentepla" viewBox="0 0 29 32">
<path d="M12.199 18.98c0-0.687-0.524-2.155-1.005-3.429 0.119 1.074 0.026 1.742-0.382 2.741-0.329 0.807-0.471 1.448-1.236 1.854-0.751 0.399-1.38 0.305-2.173 0-0.936-0.36-1.239-1.010-1.791-1.854-0.493-0.752-0.781-1.222-0.925-2.112-0.188-1.164 0.52-2.975 0.52-2.975s-0.87 1.372-1.214 2.346c-0.324 0.917-0.455 1.466-0.52 2.437-0.096 1.424 0.027 2.279 0.52 3.616 0.053 0.114 0.108 0.223 0.167 0.327 0.41 0.728 0.968 1.213 1.775 1.552 0.072 0.030 0.143 0.059 0.213 0.087 1.045 0.421 1.841 0.588 2.966 0.263 0.143-0.041 0.278-0.085 0.407-0.133 0.9-0.332 1.472-0.829 2.021-1.72 0.039-0.063 0.075-0.125 0.11-0.187 0.448-0.801 0.531-1.49 0.546-2.385 0.002-0.138 0.003-0.28 0.003-0.429z"></path>
<path d="M11.54 3.361c-1.047 0.97-1.484 1.742-1.965 3.091-0.439 1.234-0.561 2.017-0.462 3.325 0.082 1.088 0.437 1.997 0.705 2.611 0.038 0.088 0.075 0.169 0.108 0.245l0.007 0.016 0.010 0.023c0.012 0.028 0.024 0.055 0.036 0.081 0.258 0.583 0.814 1.741 1.214 2.8 0.481 1.274 1.005 2.741 1.005 3.429 0 0.149-0.001 0.291-0.003 0.429-0.014 0.895-0.098 1.584-0.546 2.385-0.034 0.062-0.071 0.124-0.11 0.187-0.549 0.891-1.121 1.388-2.021 1.72-0.129 0.047-0.264 0.091-0.407 0.133-1.125 0.326-1.921 0.158-2.966-0.263-0.070-0.028-0.14-0.057-0.213-0.087-0.807-0.339-1.366-0.824-1.775-1.552-0.059-0.104-0.114-0.213-0.167-0.327 0.384 1.461 0.942 2.503 1.942 3.629 0.833 0.938 1.359 1.447 2.427 2.1 1.022 0.624 1.656 0.956 2.832 1.167 1.529 0.273 3.955-0.408 3.955-0.408s-0.789-1.27-1.087-2.391c-0.043-0.16-0.075-0.317-0.094-0.467-0.151-1.196 0.052-1.947 0.44-3.031 0.026-0.072 0.053-0.146 0.080-0.222 0.205-0.563 0.463-0.943 0.728-1.334 0.21-0.309 0.424-0.625 0.62-1.044 0.013-0.028 0.026-0.056 0.039-0.085 0.047-0.104 0.091-0.202 0.134-0.295l0.018-0.040c0.223-0.486 0.39-0.85 0.517-1.416 0.008-0.038 0.017-0.076 0.025-0.116 0.154-0.753-0.313-2.017-0.556-2.602-0.081-0.195-0.137-0.315-0.137-0.315s2.058 1.783 2.658 2.916c0.629 1.188 0.899 1.934 1.098 3.266 0.168 1.126 0.198 1.795 0 2.916-0.195 1.1-1.174 2.311-1.651 2.848-0.159 0.179-0.263 0.283-0.263 0.283s0.146-0.125 0.372-0.342c0.566-0.541 1.637-1.651 2.198-2.8 0.112-0.23 0.204-0.461 0.268-0.689 0.205-0.738 0.301-1.211 0.335-1.904 0.005-0.099 0.009-0.203 0.011-0.312 0.022-0.905 0.011-1.493-0.229-2.276-0.034-0.112-0.073-0.228-0.118-0.349-0.309-0.846-0.736-1.333-1.242-1.875-0.034-0.036-0.068-0.073-0.102-0.109-0.2-0.214-0.413-0.44-0.634-0.703-0.015-0.018-0.030-0.035-0.044-0.053-0.392-0.471-0.753-0.824-1.104-1.157-0.050-0.047-0.1-0.095-0.15-0.141l-0-0c-0.432-0.407-0.856-0.806-1.312-1.383-0.030-0.039-0.061-0.078-0.092-0.118-0.156-0.204-0.319-0.404-0.485-0.608l-0.033-0.041c-0.431-0.529-0.885-1.086-1.305-1.792-0.028-0.047-0.056-0.095-0.084-0.143-0.017-0.030-0.034-0.059-0.050-0.088l-0.001-0.002c-0.331-0.577-0.433-0.755-0.749-1.536-0.021-0.052-0.043-0.107-0.066-0.165-0.356-0.888-0.396-2.067-0.349-2.617 0.007-0.079 0.015-0.144 0.025-0.195 0.16-0.841 0.786-1.854 0.786-1.854l1.586-2.144c0 0-2.155 0.634-3.377 1.597-0.081 0.064-0.159 0.13-0.231 0.197z"></path>
<path d="M13.563 3.711c0 0-0.626 1.013-0.786 1.854-0.010 0.050-0.018 0.116-0.025 0.195-0.047 0.551-0.007 1.73 0.349 2.617 0.023 0.058 0.045 0.112 0.066 0.165 0.317 0.781 0.419 0.959 0.749 1.536l0.001 0.002c0.016 0.028 0.033 0.057 0.050 0.088 0.028 0.048 0.056 0.096 0.084 0.143 0.42 0.706 0.874 1.263 1.305 1.792l0.033 0.041c0.166 0.204 0.329 0.405 0.485 0.608 0.031 0.040 0.061 0.079 0.092 0.118 0.456 0.577 0.879 0.976 1.312 1.383l0 0c0.050 0.047 0.1 0.094 0.15 0.141 0.352 0.333 0.713 0.685 1.104 1.157 0.015 0.018 0.030 0.036 0.044 0.053 0.222 0.263 0.434 0.489 0.634 0.703 0.034 0.037 0.069 0.073 0.102 0.109 0.506 0.542 0.933 1.030 1.242 1.875 0.044 0.121 0.083 0.237 0.118 0.349 0.24 0.783 0.251 1.371 0.229 2.276-0.003 0.11-0.006 0.213-0.011 0.312-0.035 0.693-0.13 1.166-0.335 1.904-0.063 0.229-0.155 0.46-0.268 0.689-0.562 1.149-1.632 2.259-2.198 2.8-0.226 0.216-0.372 0.342-0.372 0.342s1.248-0.592 1.914-1.161c0.976-0.834 1.36-1.515 1.93-2.67 0.54-1.094 0.766-1.776 0.925-2.987 0.201-1.542 0.185-2.507-0.347-3.966-0.569-1.562-2.508-3.429-2.508-3.429l-2.809-3.221c0 0-1.656-2.263-1.965-3.966-0.28-1.54 0.291-3.998 0.291-3.998l-1.586 2.144z"></path>
<path d="M14.684 24.637c-0.072-0.854 0.477-2.047 0.636-2.572s0.986-1.439 1.387-2.508c0.317-0.844 0.636-2.211 0.636-2.211s0.737 1.491 1.040 2.508c0.33 1.108 0.537 1.759 0.52 2.916-0.016 1.068-0.027 1.739-0.52 2.683-0.506 0.969-1.965 1.983-1.965 1.983s0.979-1.888 1.214-3.208c0.223-1.255 0-3.266 0-3.266s-0.061 1.584-0.289 2.566c-0.179 0.771-0.338 1.192-0.636 1.925-0.326 0.801-0.982 1.983-0.982 1.983s-0.264-0.417-0.405-0.7c-0.382-0.766-0.564-1.245-0.636-2.1z"></path>
</symbol>
<symbol id="menu" viewBox="0 0 46 32">
<path d="M45.714 29.726c0 1.257-1.019 2.274-2.274 2.274h-18.309c-0.603 0-1.182-0.24-1.608-0.666s-0.666-1.005-0.666-1.608c0-0.603 0.24-1.182 0.666-1.608s1.005-0.666 1.608-0.666h18.309c1.257 0 2.274 1.017 2.274 2.274zM45.714 16c0 1.257-1.019 2.274-2.274 2.274h-41.166c-0.603 0-1.182-0.24-1.608-0.666s-0.666-1.005-0.666-1.608c0-0.603 0.24-1.182 0.666-1.608s1.005-0.666 1.608-0.666h41.166c1.257 0 2.274 1.019 2.274 2.274zM43.44 4.549c0.603 0 1.182-0.24 1.608-0.666s0.666-1.005 0.666-1.608c0-0.603-0.24-1.182-0.666-1.608s-1.005-0.666-1.608-0.666h-27.451c-0.299 0-0.594 0.059-0.87 0.173s-0.527 0.282-0.738 0.493c-0.211 0.211-0.379 0.462-0.493 0.738s-0.173 0.572-0.173 0.87c0 0.299 0.059 0.594 0.173 0.87s0.282 0.527 0.493 0.738c0.211 0.211 0.462 0.379 0.738 0.493s0.572 0.173 0.87 0.173h27.451z"></path>
</symbol>
<symbol id="exit" viewBox="0 0 32 32">
<path stroke-linejoin="miter" stroke-linecap="round" stroke-miterlimit="4" stroke-width="4.5714" d="M2.286 2.286l13.714 13.714 13.714-13.714"></path>
<path stroke-linejoin="miter" stroke-linecap="round" stroke-miterlimit="4" stroke-width="4.5714" d="M2.286 29.714l13.714-13.714 13.714 13.714"></path>
</symbol>
<symbol id="medal" viewBox="0 0 24 24">
<path d="M20.148 20.958l-3.191-8.347 2.431-1.158c0.38-0.127 0.507-0.507 0.38-0.76l-1.014-2.788 1.014-2.788c0.127-0.253-0.127-0.634-0.38-0.76l-2.661-1.267-1.267-2.661c-0.127-0.38-0.507-0.507-0.76-0.38l-2.788 1.014-2.788-1.014c-0.253-0.127-0.634 0.127-0.76 0.38l-1.267 2.661-2.661 1.267c-0.38 0.127-0.507 0.507-0.38 0.76l1.014 2.788-1.014 2.788c-0.127 0.253 0.127 0.634 0.38 0.76l2.395 1.141-3.029 8.238c0 0.253 0 0.507 0.127 0.634 0.127 0.253 0.38 0.253 0.634 0.253l3.042-0.507 1.901 2.408c0.127 0.127 0.253 0.253 0.507 0.253h0.127c0.253 0 0.38-0.127 0.507-0.38l1.284-3.49 1.378 3.617c0.127 0.253 0.253 0.38 0.507 0.38h0.127c0.253 0 0.38-0.127 0.507-0.253l1.901-2.408 3.042 0.507c0.253 0 0.507-0.127 0.634-0.253s0.254-0.38 0.127-0.634zM5.574 5.244l2.408-1.141c0.127 0 0.253-0.127 0.253-0.253l1.141-2.408 2.408 0.887c0.127 0 0.253 0 0.38 0l2.408-0.887 1.141 2.408c0 0.127 0.127 0.253 0.253 0.253l2.408 1.141-0.887 2.408c0 0.127 0 0.253 0 0.38l0.887 2.408-2.408 1.141c-0.127 0-0.253 0.127-0.253 0.253l-1.141 2.408-2.408-0.887c-0.127 0-0.127 0-0.253 0s-0.127 0-0.127 0l-2.408 0.887-1.141-2.408c0-0.127-0.127-0.253-0.253-0.253l-2.408-1.141 0.887-2.408c0-0.127 0-0.253 0-0.38l-0.887-2.408zM9.883 22.099l-1.521-1.901c-0.127-0.253-0.38-0.253-0.634-0.253l-2.408 0.38 2.347-6.401 0.695 1.459c0.127 0.38 0.507 0.507 0.76 0.38l2.788-1.014 0.589 0.214-2.617 7.136zM16.093 19.818c-0.253 0-0.507 0.127-0.634 0.253l-1.521 1.901-1.36-3.741 1.051-2.858 1.070 0.389c0.127 0 0.127 0 0.253 0s0.38-0.127 0.507-0.38l0.721-1.513 2.32 6.329-2.408-0.38z"></path>
</symbol>
<symbol id="money" viewBox="0 0 24 24">
<path d="M20.75 7.039v0.001c0.158-0.334 0.25-0.683 0.25-1.040v-1.5c0-2.484-4.030-4.5-9-4.5s-9 2.016-9 4.5c0-0.123 0.018-0.243 0.037-0.363-1.859 0.823-3.037 2.024-3.037 3.363v1.5c0 1.392 1.266 2.635 3.25 3.46v0c-0.158 0.334-0.251 0.683-0.251 1.040v1.5c0 0.527 0.19 1.030 0.524 1.5-0.334 0.47-0.524 0.973-0.524 1.5v1.5c0 2.484 4.030 4.5 9 4.5s9-2.016 9-4.5v-1.5c0-0.536-0.198-1.047-0.541-1.523-0.003 0.003-0.006 0.007-0.009 0.010 0.252-0.357 0.45-0.729 0.513-1.124 1.859-0.825 3.037-2.024 3.037-3.363v-1.5c0-1.392-1.266-2.637-3.25-3.461zM12 0.75c4.862 0 8.25 1.976 8.25 3.75 0 1.772-3.388 3.75-8.25 3.75s-8.25-1.978-8.25-3.75c0-1.774 3.388-3.75 8.25-3.75zM0.75 7.5c0-0.876 0.831-1.797 2.25-2.509v1.009c0 2.484 4.030 4.5 9 4.5 0.743 0 1.46-0.050 2.15-0.135-1.375 0.529-3.123 0.885-5.15 0.885-4.862 0-8.25-1.978-8.25-3.75zM20.25 18c0 1.772-3.388 3.75-8.25 3.75s-8.25-1.978-8.25-3.75c0-0.294 0.126-0.593 0.303-0.889-0.001-0.001-0.004-0.004-0.006-0.007 1.51 1.425 4.504 2.396 7.953 2.396 3.453 0 6.432-0.979 7.939-2.407-0.001 0.001-0.001 0.001-0.003 0.003 0.185 0.3 0.313 0.604 0.313 0.904zM17.153 16.365c-1.377 0.53-3.125 0.885-5.153 0.885-4.862 0-8.25-1.978-8.25-3.75 0-0.255 0.088-0.513 0.221-0.768 0.735 0.248 1.548 0.442 2.417 0.573 1.119 1.849 4.55 3.195 8.612 3.195 0.746 0 1.466-0.050 2.159-0.136-0.001 0-0.003 0.001-0.006 0.001zM15 14.25c-1.925 0-3.604-0.316-4.948-0.801 4.229-0.249 7.569-1.947 7.912-4.085 1.021-0.453 1.838-1.017 2.364-1.658-0.001 0-0.001 0-0.001 0 1.816 0.738 2.924 1.793 2.924 2.795 0 1.772-3.388 3.75-8.25 3.75zM13.603 5.593c0-0.158-0.126-0.28-0.378-0.36-0.252-0.082-0.813-0.188-1.682-0.314-0.781-0.11-1.392-0.22-1.831-0.328s-0.797-0.261-1.071-0.454c-0.274-0.196-0.412-0.425-0.412-0.683 0-0.34 0.246-0.647 0.735-0.92 0.489-0.271 1.26-0.437 2.312-0.498v-0.536h1.421v0.536c1.588 0.079 2.616 0.445 3.083 1.105l-1.957 0.328c-0.382-0.451-0.971-0.677-1.771-0.677-0.401 0-0.724 0.050-0.965 0.152-0.243 0.1-0.365 0.223-0.365 0.366 0 0.146 0.117 0.258 0.352 0.337 0.233 0.078 0.735 0.173 1.503 0.29 0.844 0.126 1.506 0.245 1.985 0.357 0.48 0.111 0.863 0.267 1.15 0.464 0.286 0.198 0.429 0.429 0.429 0.693 0 0.407-0.296 0.744-0.886 1.015s-1.443 0.431-2.558 0.479v0.694h-1.421v-0.691c-1.859-0.078-3.009-0.521-3.453-1.327l2.197-0.234c0.204 0.507 0.877 0.76 2.021 0.76 0.535 0 0.93-0.054 1.182-0.163s0.378-0.239 0.378-0.393z"></path>
</symbol>
<symbol id="team" viewBox="0 0 24 24">
<path d="M12 6.169c1.294 0 2.344-1.050 2.344-2.344s-1.050-2.344-2.344-2.344c-1.294 0-2.344 1.050-2.344 2.344 0 1.284 1.050 2.344 2.344 2.344zM12 2.438c0.759 0 1.388 0.619 1.388 1.387 0 0.759-0.619 1.387-1.388 1.387-0.759 0-1.387-0.619-1.387-1.387 0.009-0.769 0.628-1.388 1.387-1.388z"></path>
<path d="M6.9 15.272c-0.197 0.047-0.347 0.225-0.356 0.431l-0.356 5.484c-0.009 0.216-0.188 0.375-0.403 0.375h-2.719c-0.216 0-0.394-0.169-0.403-0.375l-0.366-5.475c-0.009-0.197-0.15-0.366-0.338-0.422-0.103-0.028-0.403-0.122-0.45-0.178-0.038-0.056-0.056-0.366-0.066-0.525l-0.328-5.803c0.469-0.141 1.238-0.384 1.641-0.516l1.341 1.256c0.188 0.169 0.469 0.169 0.656 0l1.341-1.256c0.131 0.037 0.291 0.094 0.469 0.15 0.253 0.084 0.525-0.056 0.6-0.309 0.084-0.253-0.056-0.525-0.309-0.6-0.403-0.131-0.731-0.234-0.731-0.234-0.169-0.056-0.347-0.009-0.478 0.103l-1.219 1.144-1.219-1.144c-0.131-0.122-0.309-0.159-0.478-0.103 0 0-1.284 0.412-1.931 0.609-0.403 0.122-0.647 0.441-0.647 0.863 0 0.028 0 0.103 0 0.103s0 0 0 0l0.319 5.719c0 0 0 0.084 0.009 0.103 0.056 0.844 0.178 1.153 0.881 1.425l0.338 5.156c0.047 0.712 0.647 1.275 1.359 1.275h2.719c0.713 0 1.313-0.563 1.359-1.275l0.347-5.344c0.038-0.094 0.038-0.206 0.009-0.309-0.066-0.253-0.337-0.394-0.591-0.328z"></path>
<path d="M4.416 6.497c1.294 0 2.344-1.050 2.344-2.344s-1.050-2.344-2.344-2.344c-1.294 0-2.344 1.050-2.344 2.344s1.059 2.344 2.344 2.344zM4.416 2.775c0.759 0 1.388 0.619 1.388 1.388s-0.619 1.388-1.388 1.388c-0.759 0-1.387-0.619-1.387-1.388s0.628-1.388 1.387-1.388z"></path>
<path d="M15.628 7.866c-0.647-0.197-1.931-0.609-1.931-0.609-0.169-0.056-0.347-0.009-0.478 0.103l-1.219 1.144-1.219-1.144c-0.131-0.122-0.309-0.159-0.478-0.103 0 0-1.284 0.413-1.931 0.609-0.413 0.122-0.647 0.441-0.647 0.862l0.319 5.841 0.009 0.094c0.056 0.844 0.178 1.162 0.881 1.425l0.338 5.156c0.047 0.712 0.647 1.275 1.359 1.275h2.728c0.712 0 1.313-0.563 1.359-1.275l0.337-5.156c0.703-0.272 0.825-0.591 0.881-1.425l0.328-5.85v-0.084c0.009-0.431-0.225-0.741-0.638-0.862zM14.991 14.494l-0.009 0.094c-0.009 0.15-0.028 0.45-0.066 0.506-0.047 0.056-0.356 0.15-0.459 0.178-0.188 0.056-0.328 0.225-0.337 0.431l-0.356 5.475c-0.009 0.216-0.188 0.375-0.403 0.375h-2.728c-0.216 0-0.384-0.169-0.403-0.375l-0.356-5.475c-0.009-0.197-0.15-0.366-0.338-0.431-0.103-0.028-0.403-0.122-0.45-0.178-0.037-0.056-0.056-0.366-0.066-0.506l-0.328-5.803v-0.028c0.469-0.141 1.238-0.384 1.641-0.516l1.341 1.256c0.188 0.169 0.469 0.169 0.656 0l1.341-1.247c0.403 0.131 1.172 0.375 1.641 0.516l-0.319 5.728z"></path>
<path d="M23.212 7.866c-0.647-0.197-1.931-0.609-1.931-0.609-0.169-0.056-0.347-0.009-0.478 0.103l-1.219 1.144-1.219-1.144c-0.131-0.122-0.309-0.159-0.478-0.103 0 0-0.328 0.103-0.731 0.234-0.253 0.084-0.394 0.347-0.309 0.6s0.347 0.394 0.6 0.309c0.178-0.056 0.337-0.112 0.469-0.15l1.341 1.256c0.188 0.169 0.469 0.169 0.656 0l1.341-1.256c0.403 0.131 1.163 0.366 1.641 0.516l-0.319 5.728-0.009 0.094c-0.009 0.15-0.028 0.45-0.066 0.506-0.047 0.056-0.356 0.15-0.459 0.178-0.188 0.056-0.328 0.225-0.337 0.431l-0.356 5.475c-0.019 0.216-0.197 0.375-0.403 0.375h-2.728c-0.206 0-0.384-0.169-0.403-0.375l-0.366-5.475c-0.009-0.197-0.169-0.366-0.356-0.431-0.253-0.084-0.506 0.056-0.591 0.309-0.028 0.094-0.028 0.197 0 0.281l0.356 5.381c0.047 0.712 0.637 1.275 1.359 1.275h2.728c0.712 0 1.313-0.563 1.359-1.275l0.337-5.156c0.703-0.272 0.825-0.581 0.881-1.416 0-0.037 0.009-0.122 0.009-0.122l0.319-5.747v-0.084c0-0.412-0.234-0.731-0.637-0.853z"></path>
<path d="M19.584 6.497c1.294 0 2.344-1.050 2.344-2.344s-1.050-2.344-2.344-2.344c-1.294 0-2.344 1.050-2.344 2.344s1.050 2.344 2.344 2.344zM19.584 2.775c0.759 0 1.387 0.619 1.387 1.388s-0.619 1.388-1.387 1.388c-0.759 0-1.388-0.619-1.388-1.388s0.619-1.388 1.388-1.388z"></path>
</symbol>
</defs>
</svg>
