<svg aria-hidden="true" style="position: absolute; width: 0; height: 0; overflow: hidden;" version="1.1" xmlns="http://www.w3.org/2000/svg" xmlns:xlink="http://www.w3.org/1999/xlink">
<defs>
<symbol id="instagram" viewBox="0 0 32 32">
<path fill="#000" style="fill: var(--color1, #000)" d="M32 28c0 2.2-1.8 4-4 4h-24c-2.2 0-4-1.8-4-4v-24c0-2.2 1.8-4 4-4h24c2.2 0 4 1.8 4 4v24z"></path>
<path fill="#fff" style="fill: var(--color2, #fff)" d="M21.5 28h-11c-3.584 0-6.5-2.916-6.5-6.5v-11c0-3.584 2.916-6.5 6.5-6.5h11c3.584 0 6.5 2.916 6.5 6.5v11c0 3.584-2.916 6.5-6.5 6.5zM10.5 6c-2.481 0-4.5 2.019-4.5 4.5v11c0 2.481 2.019 4.5 4.5 4.5h11c2.481 0 4.5-2.019 4.5-4.5v-11c0-2.481-2.019-4.5-4.5-4.5h-11z"></path>
<path fill="#fff" style="fill: var(--color2, #fff)" d="M16 22c-3.309 0-6-2.692-6-6s2.691-6 6-6c3.308 0 6 2.691 6 6s-2.692 6-6 6zM16 12c-2.206 0-4 1.794-4 4s1.794 4 4 4 4-1.794 4-4-1.794-4-4-4z"></path>
<path fill="#fff" style="fill: var(--color2, #fff)" d="M23.75 9.625c0 0.759-0.616 1.375-1.375 1.375s-1.375-0.616-1.375-1.375c0-0.759 0.616-1.375 1.375-1.375s1.375 0.616 1.375 1.375z"></path>
</symbol>
<symbol id="tiktok" viewBox="0 0 33 32">
<path fill="#3f3f40" style="fill: var(--color3, #3f3f40)" d="M30.988 8.299c0-1.032-0.475-3.778-2.705-5.265-2.498-1.652-8.052-1.321-12.119-1.321-5.141 0-9.641-1.177-12.222 1.404-2.746 2.766-2.787 3.881-2.787 11.148 0 4.253-0.062 8.981 2.643 12.47 2.333 3.014 5.12 3.861 8.712 3.943 2.126 0.041 6.132 0.413 8.237 0.103 1.961-0.289 6.4-0.083 8.568-3.055 1.961-2.684 0.578-6.978 0.867-11.314 0.186-2.705 0.805-5.409 0.805-8.114z"></path>
<path fill="#9afce6" style="fill: var(--color4, #9afce6)" d="M24.465 9.435c-1.714-0.516-3.179-1.61-4.17-3.097-0.372-0.578-0.661-1.197-0.888-1.858-0.145-0.372-0.351-0.372-0.681-0.392-0.805-0.021-1.672-0.124-2.477-0.041-0.723 0.062-0.475 1.197-0.475 1.714 0 2.065 0.145 4.108 0.145 6.173 0 1.961-0.062 3.923-0.103 5.884-0.021 1.445 0.041 2.973-1.135 4.026-2.415 2.147-6.648-0.372-5.45-3.53 0.268-0.723 0.846-1.301 1.569-1.569 0.413-0.165 0.867-0.268 1.301-0.351 0.289-0.062 0.764-0.021 0.991-0.206 0.289-0.248 0.165-0.867 0.165-1.177 0-0.495 0-0.991 0-1.466 0-0.268 0.083-0.661-0.041-0.929-0.165-0.372-0.599-0.289-0.929-0.248-2.684 0.289-5.017 2.003-6.132 4.459-1.321 3.014-0.64 7.123 2.436 8.774 3.345 1.775 7.597 0.351 9.538-2.808 0.991-1.631 1.032-3.324 0.991-5.161-0.021-1.053 0.041-2.085 0.103-3.138 0.041-0.991 0.041-1.961 0.021-2.932 1.528 0.888 3.097 1.672 5.079 1.61 0.413 0 0.31-0.392 0.33-0.743 0.021-0.516 0.041-1.032 0.062-1.528 0.041-0.991 0.206-1.321-0.248-1.466z"></path>
<path fill="#ff0f50" style="fill: var(--color5, #ff0f50)" d="M26.529 11.293c-1.714-0.516-3.179-1.61-4.17-3.097-0.372-0.578-0.661-1.197-0.888-1.858-0.145-0.372-0.351-0.372-0.681-0.392-0.805-0.021-1.672-0.124-2.477-0.041-0.723 0.062-0.475 1.197-0.475 1.714 0 2.065 0.145 4.108 0.145 6.173 0 1.961-0.062 3.923-0.103 5.884-0.021 1.445 0.041 2.973-1.135 4.026-2.415 2.147-6.648-0.372-5.45-3.53 0.268-0.723 0.846-1.301 1.569-1.569 0.413-0.165 0.867-0.268 1.301-0.351 0.289-0.062 0.764-0.021 0.991-0.206 0.289-0.248 0.165-0.867 0.165-1.177 0-0.495 0-0.991 0-1.466 0-0.268 0.083-0.661-0.041-0.908-0.165-0.372-0.599-0.289-0.929-0.248-2.684 0.289-5.017 2.003-6.132 4.459-1.321 2.994-0.661 7.123 2.436 8.774 3.345 1.775 7.597 0.351 9.538-2.808 0.991-1.631 1.032-3.324 0.991-5.161-0.021-1.053 0.041-2.085 0.103-3.138 0.041-0.991 0.041-1.961 0.021-2.932 1.528 0.888 3.097 1.672 5.079 1.61 0.413 0 0.31-0.392 0.33-0.743 0.021-0.516 0.041-1.032 0.062-1.528 0.041-1.012 0.206-1.342-0.248-1.486z"></path>
<path fill="#fff" style="fill: var(--color2, #fff)" d="M25.394 13.832c-0.805-0.041-1.61-0.145-2.395-0.33-1.425-0.372-2.952-1.363-2.994-1.404v7.948c-0.021 0.846-0.186 1.672-0.475 2.477-0.31 0.785-0.743 1.528-1.301 2.168-0.661 0.764-1.486 1.363-2.395 1.796-0.929 0.434-1.941 0.661-2.952 0.64-1.218 0.021-3.468-0.392-4.686-2.085-1.404-1.941-1.383-3.221-1.342-4.253 0.083-1.837 0.702-2.973 0.867-3.262 0.434-0.785 1.012-1.466 1.672-2.044 0.599-0.495 1.259-0.888 1.982-1.177 0.785-0.33 1.61-0.495 2.457-0.516v3.055c0 0-1.693 0.145-2.684 0.764-0.929 0.578-1.425 1.507-1.466 2.684-0.103 2.188 2.147 3.881 4.026 3.716 2.003-0.186 3.53-1.507 3.53-3.943v-14.575h2.828c0.124 0.702 1.59 4.294 5.347 5.306l-0.021 3.035z"></path>
<path fill="#000" style="fill: var(--color1, #000)" d="M25.538 10.261c-1.899-0.557-3.489-1.837-4.459-3.551-0.206-0.351-0.351-0.743-0.454-1.135-0.103-0.372-0.165-0.557-0.578-0.619-0.413-0.041-0.826-0.083-1.239-0.083-0.537-0.041-1.218-0.186-1.734-0.062-0.31 0.083-0.537 0.351-0.557 0.681-0.062 0.578 0.021 1.218 0.021 1.817 0.021 2.126 0.021 4.232 0.041 6.359 0.021 1.528 0.021 3.055 0.021 4.583 0 0.929 0.124 1.961-0.103 2.87-0.495 1.92-2.705 2.746-4.439 1.879-0.289-0.165-0.578-0.351-0.826-0.578-0.268-0.227-0.578-0.372-0.764-0.681-0.372-0.661-0.392-1.507-0.186-2.209 0.268-0.908 0.95-1.486 1.837-1.775 0.495-0.145 1.032-0.248 1.548-0.31 0.392-0.041 0.681-0.145 0.743-0.599 0.124-0.826 0.041-1.714 0.062-2.539 0-0.33 0.083-0.723-0.186-0.991-0.537-0.537-2.044-0.062-2.663 0.145-1.796 0.537-3.324 1.714-4.335 3.303-0.826 1.383-0.888 3.076-0.888 4.625 0 0.991-0.062 2.188 0.475 3.035 0.31 0.495 0.661 0.95 1.053 1.383 1.115 1.239 3.076 2.147 4.769 1.858 1.92-0.31 3.861-0.434 5.326-1.879 1.404-1.342 2.292-3.138 2.477-5.079 0.103-1.053 0-2.126-0.062-3.179s0.165-2.023 0.186-3.055c0-0.413 0-0.826 0.021-1.239 1.404 0.723 2.952 1.218 4.542 1.177 0.083 0 0.186 0 0.268 0 0.516-0.124 0.372-0.785 0.413-1.218 0.041-0.578 0.062-1.156 0.062-1.734 0.041-0.413 0.145-1.053-0.392-1.197zM24.052 13.089c-0.95-0.145-1.858-0.454-2.705-0.908-0.516-0.268-1.734-1.239-1.941-0.145-0.124 0.599 0 1.342 0 1.941 0 1.528 0 3.055 0 4.583 0.041 0.785 0 1.59-0.083 2.374-0.289 1.837-1.301 3.489-2.828 4.583-1.466 1.012-3.53 1.218-5.244 0.826-1.569-0.372-2.643-1.466-3.324-2.89-1.941-4.005 1.156-8.795 5.45-9.166v0.805c0 0.33 0.124 0.95 0 1.239s-1.321 0.372-1.693 0.516c-0.805 0.268-1.486 0.826-1.941 1.528-1.714 2.849 0.908 6.4 4.088 5.987 1.321-0.165 2.663-0.888 3.427-2.023 0.681-1.032 0.619-2.312 0.619-3.51 0-1.652 0-3.303-0.021-4.955-0.021-1.507-0.145-3.014-0.021-4.521 0.083-1.074 0.021-2.188 0.021-3.262 0.516-0.041 1.032-0.041 1.548 0 0.33 0.041 0.289 0.227 0.454 0.578 0.248 0.516 0.516 1.012 0.846 1.486 0.661 0.95 1.507 1.775 2.477 2.395 0.268 0.165 0.537 0.31 0.805 0.434 0.248 0.103 0.681 0.186 0.785 0.392s0.041 0.619 0.062 0.846c0.041 0.31 0.083 0.619 0.124 0.95-0.31 0-0.599-0.041-0.908-0.083z"></path>
<path fill="#000" style="fill: var(--color1, #000)" d="M32.268 14.906c-0.021-2.787-0.041-5.574-0.062-8.361 0-1.115-0.083-2.147-0.599-3.138-0.475-0.888-1.156-1.652-1.982-2.209-1.879-1.28-4.212-0.991-6.359-0.95-1.156 0.021-2.312 0.021-3.468 0.021s-2.292 0.145-3.448 0.165c-2.292 0.062-4.563-0.206-6.854-0.227-1.383-0.021-2.766 0-4.15 0.103-1.941 0.145-3.634 1.363-4.377 3.159-0.764 1.817-0.475 4.005-0.413 5.925 0.083 2.333 0.103 4.666 0.062 6.999 0 2.333 0 4.666 0.062 6.999 0.041 1.135 0.062 2.271 0.083 3.406 0 0.785 0.165 1.548 0.475 2.25 0.95 1.961 3.035 2.766 5.099 2.766 1.899 0 3.819-0.103 5.719-0.145 2.932-0.062 5.863 0.041 8.795 0.103 1.466 0.021 2.911 0 4.356-0.041 1.404-0.041 2.849 0.021 4.15-0.537 2.23-0.929 2.828-3.179 2.828-5.388-0.021-2.436 0.021-4.852 0.062-7.288 0-1.197 0.021-2.395 0.021-3.613zM31.174 9.6c-0.083 1.879-0.103 3.757-0.103 5.636l-0.021 3.51c0 1.218 0 2.436-0.021 3.654-0.021 2.23 0.33 5.079-1.218 6.895-1.156 1.363-2.828 1.383-4.459 1.404-1.177 0-2.354 0-3.53 0.062-1.775 0.083-3.551 0.083-5.306-0.021-2.271-0.124-4.542-0.083-6.813-0.041-1.941 0.041-4.439 0.434-6.132-0.723-1.837-1.239-1.548-3.592-1.672-5.533-0.248-3.345-0.289-6.689-0.248-10.054 0-1.714 0.062-3.386 0.145-5.079 0.062-1.218 0.083-2.415 0.145-3.634 0.041-1.115 0.33-2.209 1.115-3.055 1.135-1.239 2.725-1.177 4.274-1.135 1.693 0.041 3.365 0.145 5.058 0.103 3.262-0.062 6.503-0.186 9.765-0.145 1.156 0.021 2.312 0.021 3.468 0.062 1.197 0.041 2.292 0.124 3.303 0.846 0.97 0.681 1.672 1.672 1.982 2.808 0.206 0.805 0.186 1.693 0.206 2.539 0.041 0.64 0.083 1.28 0.062 1.899z"></path>
</symbol>
<symbol id="facebook" viewBox="0 0 32 32">
<path fill="#f1f2f2" style="fill: var(--color6, #f1f2f2)" d="M23.333 15.333l-1.333 4.667h-4v11.333h-5.333v-11.333h-4v-4.667h4v-8c-0-0.012-0-0.027-0-0.042 0-1.082 0.877-1.959 1.959-1.959 0.015 0 0.029 0 0.044 0l-0.002-0h8v4.667h-4.667v5.333z"></path>
<path fill="#49aaee" style="fill: var(--color7, #49aaee)" d="M31.333 6v20c0 2.946-2.388 5.333-5.333 5.333v0h-8v-11.333h4l1.333-4.667h-5.333v-5.333h4.667v-4.667h-8c-0.012-0-0.027-0-0.042-0-1.082 0-1.959 0.877-1.959 1.959 0 0.015 0 0.029 0 0.044l-0-0.002v8h-4v4.667h4v11.333h-6.667c-2.946 0-5.333-2.388-5.333-5.333v0-20c0-2.946 2.388-5.333 5.333-5.333v0h20c2.946 0 5.333 2.388 5.333 5.333v0z"></path>
</symbol>
<symbol id="youtube" viewBox="0 0 32 32">
<path fill="#dd2925" style="fill: var(--color8, #dd2925)" d="M6.582 3.118h18.835c1.913 0 3.464 1.551 3.464 3.464v18.835c0 1.913-1.551 3.464-3.464 3.464h-18.835c-1.913 0-3.464-1.551-3.464-3.464v-18.835c0-1.913 1.551-3.464 3.464-3.464z"></path>
<path fill="#fefefe" style="fill: var(--color9, #fefefe)" d="M23.625 13.356s-0.081-2.743-3.041-2.891c0 0-4.698-0.276-9.333 0.023 0 0-2.713 0.055-2.883 2.676 0 0-0.223 2.978-0.036 5.489 0 0 0.059 2.538 2.828 2.75 0 0 6.237 0.285 10.052-0.035 0 0 2.035-0.087 2.369-2.397-0.003 0 0.337-1.899 0.043-5.615zM16.494 17.371l-2.375 1.37v-5.481l4.75 2.741z"></path>
</symbol>
<symbol id="arrow" viewBox="0 0 32 32">
    <path d="M12.13,21.59,17.71,16l-5.58-5.59a1,1,0,0,1,0-1.41h0a1,1,0,0,1,1.41,0l6.36,6.36a.91.91,0,0,1,0,1.28L13.54,23a1,1,0,0,1-1.41,0h0A1,1,0,0,1,12.13,21.59Z" />
</symbol>
<symbol id="logo_gentepla" viewBox="0 0 29 32">
<path d="M12.199 18.98c0-0.687-0.524-2.155-1.005-3.429 0.119 1.074 0.026 1.742-0.382 2.741-0.329 0.807-0.471 1.448-1.236 1.854-0.751 0.399-1.38 0.305-2.173 0-0.936-0.36-1.239-1.010-1.791-1.854-0.493-0.752-0.781-1.222-0.925-2.112-0.188-1.164 0.52-2.975 0.52-2.975s-0.87 1.372-1.214 2.346c-0.324 0.917-0.455 1.466-0.52 2.437-0.096 1.424 0.027 2.279 0.52 3.616 0.053 0.114 0.108 0.223 0.167 0.327 0.41 0.728 0.968 1.213 1.775 1.552 0.072 0.030 0.143 0.059 0.213 0.087 1.045 0.421 1.841 0.588 2.966 0.263 0.143-0.041 0.278-0.085 0.407-0.133 0.9-0.332 1.472-0.829 2.021-1.72 0.039-0.063 0.075-0.125 0.11-0.187 0.448-0.801 0.531-1.49 0.546-2.385 0.002-0.138 0.003-0.28 0.003-0.429z"></path>
<path d="M11.54 3.361c-1.047 0.97-1.484 1.742-1.965 3.091-0.439 1.234-0.561 2.017-0.462 3.325 0.082 1.088 0.437 1.997 0.705 2.611 0.038 0.088 0.075 0.169 0.108 0.245l0.007 0.016 0.010 0.023c0.012 0.028 0.024 0.055 0.036 0.081 0.258 0.583 0.814 1.741 1.214 2.8 0.481 1.274 1.005 2.741 1.005 3.429 0 0.149-0.001 0.291-0.003 0.429-0.014 0.895-0.098 1.584-0.546 2.385-0.034 0.062-0.071 0.124-0.11 0.187-0.549 0.891-1.121 1.388-2.021 1.72-0.129 0.047-0.264 0.091-0.407 0.133-1.125 0.326-1.921 0.158-2.966-0.263-0.070-0.028-0.14-0.057-0.213-0.087-0.807-0.339-1.366-0.824-1.775-1.552-0.059-0.104-0.114-0.213-0.167-0.327 0.384 1.461 0.942 2.503 1.942 3.629 0.833 0.938 1.359 1.447 2.427 2.1 1.022 0.624 1.656 0.956 2.832 1.167 1.529 0.273 3.955-0.408 3.955-0.408s-0.789-1.27-1.087-2.391c-0.043-0.16-0.075-0.317-0.094-0.467-0.151-1.196 0.052-1.947 0.44-3.031 0.026-0.072 0.053-0.146 0.080-0.222 0.205-0.563 0.463-0.943 0.728-1.334 0.21-0.309 0.424-0.625 0.62-1.044 0.013-0.028 0.026-0.056 0.039-0.085 0.047-0.104 0.091-0.202 0.134-0.295l0.018-0.040c0.223-0.486 0.39-0.85 0.517-1.416 0.008-0.038 0.017-0.076 0.025-0.116 0.154-0.753-0.313-2.017-0.556-2.602-0.081-0.195-0.137-0.315-0.137-0.315s2.058 1.783 2.658 2.916c0.629 1.188 0.899 1.934 1.098 3.266 0.168 1.126 0.198 1.795 0 2.916-0.195 1.1-1.174 2.311-1.651 2.848-0.159 0.179-0.263 0.283-0.263 0.283s0.146-0.125 0.372-0.342c0.566-0.541 1.637-1.651 2.198-2.8 0.112-0.23 0.204-0.461 0.268-0.689 0.205-0.738 0.301-1.211 0.335-1.904 0.005-0.099 0.009-0.203 0.011-0.312 0.022-0.905 0.011-1.493-0.229-2.276-0.034-0.112-0.073-0.228-0.118-0.349-0.309-0.846-0.736-1.333-1.242-1.875-0.034-0.036-0.068-0.073-0.102-0.109-0.2-0.214-0.413-0.44-0.634-0.703-0.015-0.018-0.030-0.035-0.044-0.053-0.392-0.471-0.753-0.824-1.104-1.157-0.050-0.047-0.1-0.095-0.15-0.141l-0-0c-0.432-0.407-0.856-0.806-1.312-1.383-0.030-0.039-0.061-0.078-0.092-0.118-0.156-0.204-0.319-0.404-0.485-0.608l-0.033-0.041c-0.431-0.529-0.885-1.086-1.305-1.792-0.028-0.047-0.056-0.095-0.084-0.143-0.017-0.030-0.034-0.059-0.050-0.088l-0.001-0.002c-0.331-0.577-0.433-0.755-0.749-1.536-0.021-0.052-0.043-0.107-0.066-0.165-0.356-0.888-0.396-2.067-0.349-2.617 0.007-0.079 0.015-0.144 0.025-0.195 0.16-0.841 0.786-1.854 0.786-1.854l1.586-2.144c0 0-2.155 0.634-3.377 1.597-0.081 0.064-0.159 0.13-0.231 0.197z"></path>
<path d="M13.563 3.711c0 0-0.626 1.013-0.786 1.854-0.010 0.050-0.018 0.116-0.025 0.195-0.047 0.551-0.007 1.73 0.349 2.617 0.023 0.058 0.045 0.112 0.066 0.165 0.317 0.781 0.419 0.959 0.749 1.536l0.001 0.002c0.016 0.028 0.033 0.057 0.050 0.088 0.028 0.048 0.056 0.096 0.084 0.143 0.42 0.706 0.874 1.263 1.305 1.792l0.033 0.041c0.166 0.204 0.329 0.405 0.485 0.608 0.031 0.040 0.061 0.079 0.092 0.118 0.456 0.577 0.879 0.976 1.312 1.383l0 0c0.050 0.047 0.1 0.094 0.15 0.141 0.352 0.333 0.713 0.685 1.104 1.157 0.015 0.018 0.030 0.036 0.044 0.053 0.222 0.263 0.434 0.489 0.634 0.703 0.034 0.037 0.069 0.073 0.102 0.109 0.506 0.542 0.933 1.030 1.242 1.875 0.044 0.121 0.083 0.237 0.118 0.349 0.24 0.783 0.251 1.371 0.229 2.276-0.003 0.11-0.006 0.213-0.011 0.312-0.035 0.693-0.13 1.166-0.335 1.904-0.063 0.229-0.155 0.46-0.268 0.689-0.562 1.149-1.632 2.259-2.198 2.8-0.226 0.216-0.372 0.342-0.372 0.342s1.248-0.592 1.914-1.161c0.976-0.834 1.36-1.515 1.93-2.67 0.54-1.094 0.766-1.776 0.925-2.987 0.201-1.542 0.185-2.507-0.347-3.966-0.569-1.562-2.508-3.429-2.508-3.429l-2.809-3.221c0 0-1.656-2.263-1.965-3.966-0.28-1.54 0.291-3.998 0.291-3.998l-1.586 2.144z"></path>
<path d="M14.684 24.637c-0.072-0.854 0.477-2.047 0.636-2.572s0.986-1.439 1.387-2.508c0.317-0.844 0.636-2.211 0.636-2.211s0.737 1.491 1.040 2.508c0.33 1.108 0.537 1.759 0.52 2.916-0.016 1.068-0.027 1.739-0.52 2.683-0.506 0.969-1.965 1.983-1.965 1.983s0.979-1.888 1.214-3.208c0.223-1.255 0-3.266 0-3.266s-0.061 1.584-0.289 2.566c-0.179 0.771-0.338 1.192-0.636 1.925-0.326 0.801-0.982 1.983-0.982 1.983s-0.264-0.417-0.405-0.7c-0.382-0.766-0.564-1.245-0.636-2.1z"></path>
</symbol>
</defs>
</svg>
